<?xml version="1.0" encoding="iso-8859-1"?>
<!-- Generator: Adobe Illustrator 19.0.0, SVG Export Plug-In . SVG Version: 6.00 Build 0)  -->
<svg version="1.1" id="Capa_1" xmlns="http://www.w3.org/2000/svg" xmlns:xlink="http://www.w3.org/1999/xlink" x="0px" y="0px"
	 viewBox="0 0 512.008 512.008" style="enable-background:new 0 0 512.008 512.008;" xml:space="preserve">
<g transform="translate(0 -1)">
	<g transform="translate(1 1)">
		<g>
			<path style="fill:#E3E7F2;" d="M419.807,346.141l61.663-45.925c3.621-2.573,4.957-7.322,3.21-11.405l-13.614-31.281
				c-1.376-2.828-3.891-4.936-6.916-5.797c-3.025-0.861-6.273-0.393-8.932,1.287l-35.611,23.893L419.807,346.141z"/>
			<path style="fill:#E3E7F2;" d="M158.693,104.541l46.316-66.433c2.584-3.631,7.343-4.979,11.447-3.243l31.462,13.524
				c2.841,1.358,4.967,3.866,5.841,6.891s0.414,6.28-1.264,8.944l-24.259,40.317H158.693z"/>
		</g>
		<path style="fill:#A4C2F7;" d="M434.207,153.608v297.301c-0.05,3.081-1.503,5.97-3.946,7.848
			c-2.443,1.878-5.609,2.539-8.598,1.795l-13.056-2.987V153.608l-76.8-68.267h25.6L434.207,153.608z"/>
		<g>
			<path style="fill:#E3E7F2;" d="M408.607,153.608v303.957h-0.085l-2.133-0.512l-16.043-3.669
				c-3.662-0.802-6.582-3.559-7.595-7.168l-50.944-198.741l-77.824-57.941L48.33,138.845c-3.615-0.954-6.426-3.798-7.339-7.424
				L33.482,97.97c-0.783-3.003-0.14-6.199,1.743-8.665c1.883-2.466,4.797-3.929,7.9-3.964h288.683L408.607,153.608z"/>
			<path style="fill:#E3E7F2;" d="M408.607,457.565v3.243c0-0.085,0-1.451-0.085-3.243H408.607z"/>
		</g>
		<path style="fill:#FFFFFF;" d="M48.33,138.845c-3.615-0.954-6.426-3.798-7.339-7.424L33.482,97.97
			c-0.783-3.003-0.14-6.199,1.743-8.665c1.883-2.466,4.797-3.929,7.9-3.964h25.6c-3.103,0.036-6.017,1.498-7.9,3.964
			c-1.883,2.466-2.526,5.662-1.743,8.665l7.509,33.451c0.912,3.626,3.724,6.47,7.339,7.424H48.33z"/>
		<path style="fill:#E3E7F2;" d="M143.574,313.739h-0.085L19.403,307.2c-2.772-0.385-5.583,0.352-7.809,2.047
			s-3.686,4.208-4.053,6.982l0.256,21.094c0.202,3.567,2.523,6.665,5.889,7.862l69.467,30.279l60.933,55.045l30.067,67.163
			c1.213,3.352,4.327,5.642,7.888,5.803h21.242c2.791-0.335,5.328-1.784,7.034-4.018c1.706-2.234,2.436-5.063,2.025-7.844
			l-7.185-122.037L143.574,313.739z"/>
		<path style="fill:#A4C2F7;" d="M122.117,435.082l-26.107,0.12c-11.031,0.051-19.921-5.45-19.856-16.432l0.154-26.021
			c0.018-2.441,0.926-4.791,2.555-6.609L388.311,39.702c4.85-5.429,10.604-9.977,17.007-13.442l0,0
			c5.59-3.026,11.606-5.189,17.843-6.413l55.668-10.919c6.424-1.306,13.077,0.668,17.75,5.265
			c4.673,4.598,6.754,11.218,5.552,17.662l-12.064,64.922c-1.326,6.878-4.684,13.201-9.641,18.15L128.883,432.436
			C127.033,434.125,124.622,435.068,122.117,435.082L122.117,435.082z"/>
		<path style="fill:#E3E7F2;" d="M101.288,427.003l-23.144,3.049c-9.779,1.289-9.71-6.978-8.415-16.744l3.069-23.139
			c0.358-2.31,1.407-4.458,3.008-6.161L381.692,45.671c4.879-5.346,10.457-10.008,16.583-13.862l0,0
			c5.163-3.258,10.717-5.849,16.532-7.71l50.552-15.977c5.109-2.325,11.121-1.263,15.125,2.671s5.17,9.927,2.935,15.076
			l-18.005,59.049c-2.098,6.504-5.729,12.409-10.587,17.215L107.58,423.889C105.853,425.549,103.656,426.637,101.288,427.003z"/>
		<rect x="7.541" y="307.208" style="fill:#FFFFFF;" width="25.6" height="42.667"/>
	</g>
	<g>
		<path style="fill:#428DFF;" d="M435.382,344.862c-3.679,0.004-6.946-2.351-8.106-5.843c-1.16-3.491,0.048-7.333,2.998-9.532
			l47.1-35.112c0.217-0.163,0.717-0.617,0.483-1.158l-13.617-31.283c-0.257-0.459-0.691-0.793-1.2-0.925
			c-0.776-0.254-1.625-0.158-2.325,0.262l-21.033,13.075c-2.589,1.611-5.84,1.718-8.529,0.281c-2.689-1.437-4.408-4.199-4.508-7.246
			c-0.101-3.047,1.432-5.917,4.021-7.527l21.042-13.079c4.914-3.035,10.904-3.788,16.417-2.063
			c5.248,1.597,9.543,5.397,11.767,10.413l13.617,31.283c3.309,7.715,0.852,16.692-5.925,21.646l-47.108,35.117
			C439.004,344.27,437.218,344.863,435.382,344.862z"/>
		<path style="fill:#428DFF;" d="M425.082,470.341c-1.447-0.002-2.889-0.165-4.3-0.488l-31.375-7.146
			c-6.725-1.534-12.058-6.646-13.875-13.3l-50.958-194.704c-1.177-4.555,1.554-9.204,6.106-10.394
			c4.552-1.19,9.208,1.528,10.411,6.077l50.95,194.695c0.241,0.524,0.718,0.9,1.283,1.012l31.242,7.117
			c0.575,0.151,1.187,0.028,1.658-0.333c0.306-0.213,0.487-0.564,0.483-0.937V163.47c0-4.713,3.82-8.533,8.533-8.533
			s8.533,3.821,8.533,8.533v288.471c0.002,5.563-2.539,10.821-6.9,14.275C433.527,468.892,429.368,470.347,425.082,470.341z"/>
		<path style="fill:#428DFF;" d="M204.282,513.008h-21.242c-7.018-0.15-13.25-4.525-15.775-11.075l-29.975-66.938
			c-1.91-4.3,0.02-9.334,4.314-11.257c4.294-1.922,9.334-0.007,11.269,4.282l30.575,68.004l20.833-0.083
			c0.337-0.933,0.517-1.916,0.533-2.908l-7.175-121.958c-0.276-4.704,3.313-8.74,8.017-9.017s8.74,3.313,9.017,8.017l7.183,122.038
			c0.373,5.73-1.614,11.364-5.5,15.592C213.238,511.064,208.868,512.984,204.282,513.008L204.282,513.008z"/>
		<path style="fill:#428DFF;" d="M254.949,199.104c-0.691,0.001-1.379-0.083-2.05-0.25L47.324,148.145
			c-6.628-1.715-11.822-6.86-13.6-13.471l-7.6-33.875c-1.317-5.517-0.058-11.333,3.423-15.811c3.481-4.478,8.806-7.133,14.477-7.218
			h302c4.713,0,8.533,3.82,8.533,8.533c0,4.713-3.82,8.533-8.533,8.533H44.157c-0.46,0.034-0.882,0.27-1.15,0.646
			c-0.313,0.388-0.415,0.905-0.275,1.383l7.55,33.696c0.221,0.505,0.659,0.884,1.192,1.029l205.508,50.696
			c4.187,1.033,6.945,5.027,6.428,9.308C262.892,195.877,259.262,199.099,254.949,199.104L254.949,199.104z"/>
		<path style="fill:#428DFF;" d="M84.141,384.999c-1.171,0-2.329-0.244-3.4-0.717l-69.467-30.275
			c-6.502-2.523-10.845-8.711-11.008-15.683l-0.259-20.992c0.006-4.546,1.887-8.887,5.2-12c4.185-3.912,9.779-5.956,15.5-5.663
			l124.233,6.546c4.62,0.22,8.224,4.081,8.124,8.706c-0.099,4.625-3.866,8.327-8.491,8.348h-0.083l-124.541-6.55
			c-1.093-0.097-2.177,0.265-2.992,1l0.367,20.292c0.1-0.029,0.25,0.133,0.617,0.288l69.616,30.341
			c3.707,1.615,5.772,5.61,4.945,9.569C91.676,382.168,88.185,385.003,84.141,384.999L84.141,384.999z"/>
		<path style="fill:#428DFF;" d="M96.857,444.737c-7.936,0.317-15.673-2.533-21.508-7.921c-4.479-4.543-6.908-10.719-6.725-17.096
			l0.15-26.021c0.033-4.521,1.712-8.874,4.725-12.245L382.941,35.02c10.379-11.626,24.273-19.543,39.567-22.546l55.683-10.921
			c9.197-1.848,18.71,0.991,25.391,7.575s9.657,16.056,7.942,25.279l-12.067,64.929c-1.62,8.572-5.797,16.453-11.983,22.604
			L135.599,439.77c-3.404,3.101-7.837,4.828-12.442,4.846l0,0l-26.108,0.121H96.857z M483.766,18.079
			c-0.769,0-1.537,0.075-2.292,0.225L425.799,29.22c-11.645,2.285-22.223,8.313-30.125,17.167L86.232,392.82
			c-0.248,0.27-0.387,0.621-0.392,0.987l-0.15,26.013c-0.16,1.82,0.475,3.62,1.742,4.937c2.663,2.124,6.029,3.164,9.425,2.913h0.108
			l26.108-0.121c0.391-0.007,0.767-0.155,1.058-0.417l351.575-317.537c3.576-3.684,5.997-8.333,6.967-13.375l12.067-64.925
			c0.712-3.632-0.45-7.379-3.092-9.971C489.557,19.238,486.72,18.07,483.766,18.079z"/>
		<path style="fill:#428DFF;" d="M452.316,103.374c-2.263,0.001-4.434-0.898-6.035-2.499s-2.499-3.771-2.499-6.035V69.237h-25.609
			c-4.713,0-8.533-3.821-8.533-8.533c0-4.713,3.82-8.533,8.533-8.533h25.609c9.421,0.011,17.056,7.645,17.067,17.067v25.604
			c0.001,2.263-0.898,4.434-2.499,6.035C456.75,102.476,454.579,103.375,452.316,103.374L452.316,103.374z"/>
		<path style="fill:#428DFF;" d="M240.407,94.837c-3.096-0.003-5.947-1.683-7.451-4.389c-1.504-2.706-1.424-6.014,0.209-8.645
			l13.075-21.079c0.41-0.687,0.504-1.518,0.258-2.279c-0.136-0.518-0.48-0.956-0.95-1.213l-31.458-13.529
			c-0.48-0.144-0.996,0.063-1.242,0.5l-35.133,47.196c-1.821,2.444-4.807,3.732-7.834,3.377s-5.635-2.297-6.842-5.096
			s-0.828-6.029,0.992-8.473l35.133-47.196c4.946-6.799,13.933-9.281,21.667-5.983l31.45,13.525
			c5.051,2.206,8.887,6.508,10.5,11.779c1.743,5.503,0.997,11.492-2.042,16.4l-13.075,21.071
			C246.109,93.316,243.363,94.842,240.407,94.837L240.407,94.837z"/>
		<path style="fill:#428DFF;" d="M315.766,128.974H170.691c-4.713,0-8.533-3.82-8.533-8.533s3.82-8.533,8.533-8.533h145.075
			c4.713,0,8.533,3.821,8.533,8.533S320.479,128.974,315.766,128.974L315.766,128.974z"/>
		<path style="fill:#428DFF;" d="M401.107,350.862c-2.263,0.001-4.434-0.898-6.035-2.499c-1.6-1.6-2.499-3.771-2.499-6.035V197.249
			c0-4.713,3.82-8.533,8.533-8.533s8.533,3.82,8.533,8.533v145.079c0.001,2.263-0.898,4.434-2.499,6.035
			C405.542,349.964,403.371,350.863,401.107,350.862L401.107,350.862z"/>
		<path style="fill:#428DFF;" d="M59.749,461.795c-3.451-0.001-6.562-2.08-7.882-5.268c-1.32-3.188-0.591-6.858,1.849-9.298
			l51.2-51.204c3.34-3.285,8.704-3.263,12.017,0.05c3.313,3.313,3.335,8.677,0.049,12.017l-51.2,51.204
			C64.184,460.898,62.013,461.798,59.749,461.795z"/>
		<path style="fill:#428DFF;" d="M264.558,256.987c-3.451-0.001-6.562-2.08-7.882-5.268c-1.32-3.188-0.591-6.858,1.849-9.298
			l128.017-128.013c2.155-2.156,5.297-2.997,8.242-2.208c2.944,0.789,5.244,3.089,6.033,6.033c0.789,2.944-0.053,6.086-2.208,8.242
			L270.591,254.487C268.993,256.09,266.821,256.99,264.558,256.987z"/>
	</g>
</g>
<g>
</g>
<g>
</g>
<g>
</g>
<g>
</g>
<g>
</g>
<g>
</g>
<g>
</g>
<g>
</g>
<g>
</g>
<g>
</g>
<g>
</g>
<g>
</g>
<g>
</g>
<g>
</g>
<g>
</g>
</svg>
