<svg width="80" height="85" xmlns="http://www.w3.org/2000/svg">
 <!-- Created with Method Draw - http://github.com/duopixel/Method-Draw/ -->

 <g>
  <title>background</title>
  <rect fill="none" id="canvas_background" height="87" width="82" y="-1" x="-1"/>
  <g display="none" overflow="visible" y="0" x="0" height="100%" width="100%" id="canvasGrid">
   <rect fill="url(#gridpattern)" stroke-width="0" y="0" x="0" height="100%" width="100%"/>
  </g>
 </g>
 <g>
  <title>Layer 1</title>
  <g stroke="null" id="svg_456">
   <g stroke="null" transform="matrix(1.4508108831542101,0,0,1.5828302233715137,164.89042442039357,89.51805470219773) " id="svg_427">
    <path stroke="null" id="svg_428" fill="#B85133" d="m-62.552763,-22.729684l-48,0c-1.1,0 -2,-0.9 -2,-2l0,0c0,-1.1 0.9,-2 2,-2l48,0c1.1,0 2,0.9 2,2l0,0c0,1.1 -0.9,2 -2,2z"/>
    <path stroke="null" id="svg_429" fill="#B85133" d="m-63.552763,-30.729684l-48,0c-1.1,0 -2,-0.9 -2,-2l0,0c0,-1.1 0.9,-2 2,-2l48,0c1.1,0 2,0.9 2,2l0,0c0,1.1 -0.9,2 -2,2z"/>
    <path stroke="null" id="svg_430" fill="#6A3311" d="m-60.552763,-26.729684l-49,0c-1.1,0 -2,-0.9 -2,-2l0,0c0,-1.1 0.9,-2 2,-2l49,0c1.1,0 2,0.9 2,2l0,0c0,1.1 -0.9,2 -2,2z"/>
    <path stroke="null" id="svg_431" fill="#88C057" d="m-108.108763,-39.021684l0,3.664l0,0.002c0,1.519 1.231,2.75 2.75,2.75c1.278,0 2.352,-0.872 2.661,-2.053c0.026,-0.098 0.153,-0.098 0.178,0c0.309,1.181 1.383,2.053 2.661,2.053s2.352,-0.872 2.661,-2.053c0.026,-0.098 0.153,-0.098 0.178,0c0.309,1.181 1.383,2.053 2.661,2.053c1.278,0 2.352,-0.872 2.661,-2.053c0.026,-0.098 0.153,-0.098 0.178,0c0.309,1.181 1.383,2.053 2.661,2.053c1.278,0 2.352,-0.872 2.661,-2.053c0.026,-0.098 0.153,-0.098 0.178,0c0.309,1.181 1.383,2.053 2.661,2.053c1.278,0 2.352,-0.872 2.661,-2.053c0.026,-0.098 0.153,-0.098 0.178,0c0.309,1.181 1.383,2.053 2.661,2.053s2.352,-0.872 2.661,-2.053c0.026,-0.098 0.153,-0.098 0.178,0c0.309,1.181 1.383,2.053 2.661,2.053s2.352,-0.872 2.661,-2.053c0.026,-0.098 0.153,-0.098 0.178,0c0.309,1.181 1.383,2.053 2.661,2.053c1.519,0 2.75,-1.231 2.75,-2.75l0,-0.002l0,-3.664l-44,0z"/>
    <path stroke="null" id="svg_432" fill="#659C35" d="m-64.552763,-18.729684l0,-3.664l0,-0.002c0,-1.519 -1.231,-2.75 -2.75,-2.75c-1.278,0 -2.352,0.872 -2.661,2.053c-0.026,0.098 -0.153,0.098 -0.178,0c-0.309,-1.181 -1.383,-2.053 -2.661,-2.053s-2.352,0.872 -2.661,2.053c-0.026,0.098 -0.153,0.098 -0.178,0c-0.309,-1.181 -1.383,-2.053 -2.661,-2.053s-2.352,0.872 -2.661,2.053c-0.026,0.098 -0.153,0.098 -0.178,0c-0.309,-1.181 -1.383,-2.053 -2.661,-2.053s-2.352,0.872 -2.661,2.053c-0.026,0.098 -0.153,0.098 -0.178,0c-0.309,-1.181 -1.383,-2.053 -2.661,-2.053s-2.352,0.872 -2.661,2.053c-0.026,0.098 -0.153,0.098 -0.178,0c-0.309,-1.181 -1.383,-2.053 -2.661,-2.053s-2.352,0.872 -2.661,2.053c-0.026,0.098 -0.153,0.098 -0.178,0c-0.309,-1.181 -1.383,-2.053 -2.661,-2.053s-2.352,0.872 -2.661,2.053c-0.026,0.098 -0.153,0.098 -0.178,0c-0.309,-1.181 -1.383,-2.053 -2.661,-2.053c-1.519,0 -2.75,1.231 -2.75,2.75l0,0.002l0,3.664l44,0z"/>
    <path stroke="null" id="svg_433" fill="#D99F4C" d="m-86.108763,-49.021684l11,0c8.236,0 11.942,5.996 13.318,9.134c0.714,1.629 -0.238,3.594 -1.999,3.84c-0.124,0.017 -0.242,0.026 -0.352,0.026l-21.967,0l-21.966,0c-0.11,0 -0.228,-0.009 -0.352,-0.026c-1.761,-0.246 -2.713,-2.211 -1.999,-3.84c1.375,-3.138 5.081,-9.134 13.318,-9.134l10.999,0z"/>
    <path stroke="null" id="svg_434" fill="#EFDFA0" d="m-76.109763,-39.021684c-0.19,0 -0.383,-0.055 -0.554,-0.168l-3,-2c-0.459,-0.307 -0.583,-0.927 -0.277,-1.387c0.306,-0.46 0.927,-0.583 1.387,-0.277l3,2c0.459,0.307 0.583,0.927 0.277,1.387c-0.193,0.289 -0.51,0.445 -0.833,0.445z"/>
    <path stroke="null" id="svg_435" fill="#EFDFA0" d="m-90.109763,-43.021684c-0.15,0 -0.303,-0.034 -0.446,-0.105c-0.494,-0.247 -0.694,-0.848 -0.447,-1.342l1,-2c0.247,-0.494 0.846,-0.694 1.342,-0.447c0.494,0.247 0.694,0.848 0.447,1.342l-1,2c-0.176,0.35 -0.529,0.552 -0.896,0.552z"/>
    <path stroke="null" id="svg_436" fill="#EFDFA0" d="m-101.109763,-40.021684c-0.15,0 -0.303,-0.034 -0.446,-0.105c-0.494,-0.247 -0.694,-0.848 -0.447,-1.342l1,-2c0.247,-0.493 0.847,-0.692 1.342,-0.447c0.494,0.247 0.694,0.848 0.447,1.342l-1,2c-0.176,0.35 -0.529,0.552 -0.896,0.552z"/>
    <path stroke="null" id="svg_437" fill="#D99F4C" d="m-64.552763,-21.729684l-3.966,0l-4,0l-14,0l-21.966,0c-1.1,0 -2,0.9 -2,2c0,0 1.81,11 12.966,11l11,0l11,0c11.156,0 12.966,-11 12.966,-11c0,-1.1 -0.9,-2 -2,-2z"/>
    <path stroke="null" id="svg_438" fill="#EFDFA0" d="m-98.519763,-14.729684c-0.19,0 -0.383,-0.055 -0.554,-0.168l-3,-2c-0.459,-0.307 -0.583,-0.927 -0.277,-1.387c0.306,-0.459 0.926,-0.584 1.387,-0.277l3,2c0.459,0.307 0.583,0.927 0.277,1.387c-0.193,0.289 -0.51,0.445 -0.833,0.445z"/>
    <path stroke="null" id="svg_439" fill="#EFDFA0" d="m-87.517763,-12.729684c-0.367,0 -0.72,-0.202 -0.896,-0.553l-1,-2c-0.247,-0.494 -0.047,-1.095 0.447,-1.342c0.495,-0.247 1.095,-0.047 1.342,0.447l1,2c0.247,0.494 0.047,1.095 -0.447,1.342c-0.143,0.072 -0.296,0.106 -0.446,0.106z"/>
    <path stroke="null" id="svg_440" fill="#EFDFA0" d="m-80.519763,-14.730684c-0.15,0 -0.303,-0.034 -0.446,-0.105c-0.494,-0.247 -0.694,-0.848 -0.447,-1.342l1,-2c0.247,-0.493 0.846,-0.692 1.342,-0.447c0.494,0.247 0.694,0.848 0.447,1.342l-1,2c-0.176,0.35 -0.529,0.552 -0.896,0.552z"/>
   </g>
   <g stroke="null" transform="matrix(1.4508108831542101,0,0,1.5828302233715137,164.89042442039357,89.51805470219773) " id="svg_441"/>
   <g stroke="null" transform="matrix(1.4508108831542101,0,0,1.5828302233715137,164.89042442039357,89.51805470219773) " id="svg_442"/>
   <g stroke="null" transform="matrix(1.4508108831542101,0,0,1.5828302233715137,164.89042442039357,89.51805470219773) " id="svg_443"/>
   <g stroke="null" transform="matrix(1.4508108831542101,0,0,1.5828302233715137,164.89042442039357,89.51805470219773) " id="svg_444"/>
   <g stroke="null" transform="matrix(1.4508108831542101,0,0,1.5828302233715137,164.89042442039357,89.51805470219773) " id="svg_445"/>
   <g stroke="null" transform="matrix(1.4508108831542101,0,0,1.5828302233715137,164.89042442039357,89.51805470219773) " id="svg_446"/>
   <g stroke="null" transform="matrix(1.4508108831542101,0,0,1.5828302233715137,164.89042442039357,89.51805470219773) " id="svg_447"/>
   <g stroke="null" transform="matrix(1.4508108831542101,0,0,1.5828302233715137,164.89042442039357,89.51805470219773) " id="svg_448"/>
   <g stroke="null" transform="matrix(1.4508108831542101,0,0,1.5828302233715137,164.89042442039357,89.51805470219773) " id="svg_449"/>
   <g stroke="null" transform="matrix(1.4508108831542101,0,0,1.5828302233715137,164.89042442039357,89.51805470219773) " id="svg_450"/>
   <g stroke="null" transform="matrix(1.4508108831542101,0,0,1.5828302233715137,164.89042442039357,89.51805470219773) " id="svg_451"/>
   <g stroke="null" transform="matrix(1.4508108831542101,0,0,1.5828302233715137,164.89042442039357,89.51805470219773) " id="svg_452"/>
   <g stroke="null" transform="matrix(1.4508108831542101,0,0,1.5828302233715137,164.89042442039357,89.51805470219773) " id="svg_453"/>
   <g stroke="null" transform="matrix(1.4508108831542101,0,0,1.5828302233715137,164.89042442039357,89.51805470219773) " id="svg_454"/>
   <g stroke="null" transform="matrix(1.4508108831542101,0,0,1.5828302233715137,164.89042442039357,89.51805470219773) " id="svg_455"/>
  </g>
 </g>
</svg>