<svg width="400" height="184" xmlns="http://www.w3.org/2000/svg">
 <!-- Created with Method Draw - http://github.com/duopixel/Method-Draw/ -->

 <g>
  <title>Layer 1</title>
  <g stroke="null" id="svg_226">
   <path stroke="null" id="svg_200" fill="#E7E8E3" d="m393.207485,87.693818c0,4.259845 -3.675712,7.713132 -8.209994,7.713132l-122.470373,0c-4.534282,0 -8.209994,-3.453797 -8.209994,-7.713132l0,-74.556201c0,-4.259845 3.675712,-7.712877 8.209994,-7.712877l122.470101,0c4.534553,0 8.209994,3.453288 8.209994,7.712877l0,74.556201l0.000271,0z"/>
   <rect stroke="null" x="3455.294124" transform="matrix(0.27127023415436136,0,0,0.25483636626519895,-683.0013205084163,-325.7260144247123) " id="svg_201" fill="#34495E" height="72.014" width="512" y="1368.148272"/>
   <rect stroke="null" x="3455.294124" transform="matrix(0.27127023415436136,0,0,0.25483636626519895,-683.0013205084163,-325.7260144247123) " id="svg_202" fill="#FFFFFF" height="44.555" width="512" y="1440.173272"/>
   <path stroke="null" id="svg_203" opacity="0.15" fill="#202121" d="m260.154047,87.693818l0,-74.556201c0,-4.259845 3.676254,-7.712877 8.210536,-7.712877l-5.837735,0c-4.534011,0 -8.209722,3.453542 -8.209722,7.712877l0,74.556201c0,4.259845 3.675712,7.713132 8.209994,7.713132l5.837735,0c-4.534282,0 -8.210807,-3.453797 -8.210807,-7.713132z"/>
   <path stroke="null" id="svg_204" fill="#EA001B" d="m356.031799,73.909464c0,-3.827133 1.87719,-7.24194 4.812876,-9.478129c-2.23174,-1.699504 -5.07411,-2.718849 -8.170659,-2.718849c-7.170486,0 -12.983265,5.460634 -12.983265,12.196978c0,6.736345 5.812779,12.196978 12.983265,12.196978c3.09655,0 5.939191,-1.019091 8.170659,-2.718849c-2.935958,-2.236189 -4.812876,-5.650996 -4.812876,-9.478129z"/>
   <path stroke="null" id="svg_205" fill="#F79F1A" d="m369.014792,61.712486c-3.09655,0 -5.939191,1.019091 -8.170388,2.718849c2.936229,2.236189 4.812605,5.650996 4.812605,9.478129c0,3.827133 -1.876647,7.24194 -4.812605,9.478129c2.23174,1.699504 5.07411,2.718849 8.170388,2.718849c7.171029,0 12.983807,-5.460634 12.983807,-12.196978c0,-6.736345 -5.812779,-12.196978 -12.983807,-12.196978z"/>
   <path stroke="null" id="svg_206" fill="#FF5F01" d="m365.657009,73.909464c0,-3.827133 -1.876647,-7.24194 -4.812605,-9.478129c-2.935686,2.236189 -4.812876,5.650996 -4.812876,9.478129c0,3.827133 1.87719,7.24194 4.812876,9.478129c2.936229,-2.236189 4.812605,-5.650996 4.812605,-9.478129z"/>
   <g stroke="null" transform="matrix(0.27127023415436136,0,0,0.25483636626519895,-683.0013205084163,-325.7260144247123) " id="svg_207">
    <path stroke="null" id="svg_208" fill="#FFFFFF" d="m3615.357132,1542.736299l-104.626,0c-4.611,0 -8.348,-3.736 -8.348,-8.348c0,-4.611 3.736,-8.348 8.348,-8.348l104.626,0c4.611,0 8.348,3.736 8.348,8.348s-3.737,8.348 -8.348,8.348z"/>
    <path stroke="null" id="svg_209" fill="#FFFFFF" d="m3615.357132,1577.435299l-104.626,0c-4.611,0 -8.348,-3.736 -8.348,-8.348s3.736,-8.348 8.348,-8.348l104.626,0c4.611,0 8.348,3.736 8.348,8.348s-3.737,8.348 -8.348,8.348z"/>
    <path stroke="null" id="svg_210" fill="#FFFFFF" d="m3615.357132,1612.134299l-104.626,0c-4.611,0 -8.348,-3.736 -8.348,-8.348c0,-4.611 3.736,-8.348 8.348,-8.348l104.626,0c4.611,0 8.348,3.736 8.348,8.348c0,4.61 -3.737,8.348 -8.348,8.348z"/>
   </g>
   <g stroke="null" transform="matrix(0.27127023415436136,0,0,0.25483636626519895,-683.0013205084163,-325.7260144247123) " id="svg_211"/>
   <g stroke="null" transform="matrix(0.27127023415436136,0,0,0.25483636626519895,-683.0013205084163,-325.7260144247123) " id="svg_212"/>
   <g stroke="null" transform="matrix(0.27127023415436136,0,0,0.25483636626519895,-683.0013205084163,-325.7260144247123) " id="svg_213"/>
   <g stroke="null" transform="matrix(0.27127023415436136,0,0,0.25483636626519895,-683.0013205084163,-325.7260144247123) " id="svg_214"/>
   <g stroke="null" transform="matrix(0.27127023415436136,0,0,0.25483636626519895,-683.0013205084163,-325.7260144247123) " id="svg_215"/>
   <g stroke="null" transform="matrix(0.27127023415436136,0,0,0.25483636626519895,-683.0013205084163,-325.7260144247123) " id="svg_216"/>
   <g stroke="null" transform="matrix(0.27127023415436136,0,0,0.25483636626519895,-683.0013205084163,-325.7260144247123) " id="svg_217"/>
   <g stroke="null" transform="matrix(0.27127023415436136,0,0,0.25483636626519895,-683.0013205084163,-325.7260144247123) " id="svg_218"/>
   <g stroke="null" transform="matrix(0.27127023415436136,0,0,0.25483636626519895,-683.0013205084163,-325.7260144247123) " id="svg_219"/>
   <g stroke="null" transform="matrix(0.27127023415436136,0,0,0.25483636626519895,-683.0013205084163,-325.7260144247123) " id="svg_220"/>
   <g stroke="null" transform="matrix(0.27127023415436136,0,0,0.25483636626519895,-683.0013205084163,-325.7260144247123) " id="svg_221"/>
   <g stroke="null" transform="matrix(0.27127023415436136,0,0,0.25483636626519895,-683.0013205084163,-325.7260144247123) " id="svg_222"/>
   <g stroke="null" transform="matrix(0.27127023415436136,0,0,0.25483636626519895,-683.0013205084163,-325.7260144247123) " id="svg_223"/>
   <g stroke="null" transform="matrix(0.27127023415436136,0,0,0.25483636626519895,-683.0013205084163,-325.7260144247123) " id="svg_224"/>
   <g stroke="null" transform="matrix(0.27127023415436136,0,0,0.25483636626519895,-683.0013205084163,-325.7260144247123) " id="svg_225"/>
  </g>
  <g stroke="null" id="svg_195">
   <g stroke="null" transform="matrix(0.27320422435033576,0,0,0.24823320255854442,-680.0112819305175,-337.3981305604278) " id="svg_154">
    <g stroke="null" id="svg_155">
     <path stroke="null" id="svg_156" fill="#5D647F" d="m3582.035559,1471.03138l-432,0c-22.055,0 -40,17.945 -40,40l0,288c0,22.055 17.945,40 40,40l432,0c22.055,0 40,-17.945 40,-40l0,-288c0,-22.055 -17.945,-40 -40,-40z"/>
    </g>
    <g stroke="null" id="svg_157">
     <path stroke="null" id="svg_158" fill="#FFD100" d="m3286.035559,1631.03138l-96,0c-8.837,0 -16,-7.163 -16,-16l0,-64c0,-8.837 7.163,-16 16,-16l96,0c8.837,0 16,7.163 16,16l0,64c0,8.837 -7.163,16 -16,16z"/>
    </g>
    <g stroke="null" id="svg_159">
     <g stroke="null" id="svg_160">
      <path stroke="null" id="svg_161" fill="#B8BAC0" d="m3230.035559,1735.03138l-40,0c-8.837,0 -16,-7.163 -16,-16l0,-8c0,-8.837 7.163,-16 16,-16l40,0c8.837,0 16,7.163 16,16l0,8c0,8.837 -7.163,16 -16,16z"/>
     </g>
     <g stroke="null" id="svg_162">
      <path stroke="null" id="svg_163" fill="#B8BAC0" d="m3334.035559,1735.03138l-40,0c-8.837,0 -16,-7.163 -16,-16l0,-8c0,-8.837 7.163,-16 16,-16l40,0c8.837,0 16,7.163 16,16l0,8c0,8.837 -7.163,16 -16,16z"/>
     </g>
     <g stroke="null" id="svg_164">
      <path stroke="null" id="svg_165" fill="#B8BAC0" d="m3438.035559,1735.03138l-40,0c-8.837,0 -16,-7.163 -16,-16l0,-8c0,-8.837 7.163,-16 16,-16l40,0c8.837,0 16,7.163 16,16l0,8c0,8.837 -7.163,16 -16,16z"/>
     </g>
     <g stroke="null" id="svg_166">
      <path stroke="null" id="svg_167" fill="#B8BAC0" d="m3542.035559,1735.03138l-40,0c-8.837,0 -16,-7.163 -16,-16l0,-8c0,-8.837 7.163,-16 16,-16l40,0c8.837,0 16,7.163 16,16l0,8c0,8.837 -7.163,16 -16,16z"/>
     </g>
    </g>
    <g stroke="null" id="svg_168">
     <g stroke="null" id="svg_169">
      <path stroke="null" id="svg_170" fill="#8A8895" d="m3342.035559,1783.03138l-160,0c-4.422,0 -8,-3.582 -8,-8s3.578,-8 8,-8l160,0c4.422,0 8,3.582 8,8s-3.578,8 -8,8z"/>
     </g>
    </g>
    <g stroke="null" id="svg_171">
     <g stroke="null" id="svg_172">
      <path stroke="null" id="svg_173" fill="#8A8895" d="m3446.035559,1783.03138l-72,0c-4.422,0 -8,-3.582 -8,-8s3.578,-8 8,-8l72,0c4.422,0 8,3.582 8,8s-3.578,8 -8,8z"/>
     </g>
    </g>
    <g stroke="null" id="svg_174">
     <path stroke="null" id="svg_175" fill="#FF4F19" d="m3478.035559,1615.03338c-8.789,9.819 -21.561,15.998 -35.776,15.998c-26.51,0 -48,-21.49 -48,-48s21.49,-48 48,-48c14.213,0 26.983,6.177 35.772,15.993"/>
    </g>
    <g stroke="null" id="svg_176">
     <polygon stroke="null" id="svg_177" fill="#FF9500" points="3302.0356369018555,1591.0314059257507 3222.0356369018555,1591.0314059257507 3222.0356369018555,1575.0314059257507 3302.0356369018555,1575.0314059257507 3302.0356369018555,1559.0314059257507 3222.0356369018555,1559.0314059257507 3222.0356369018555,1535.0314059257507 3206.0356369018555,1535.0314059257507 3206.0356369018555,1631.0314059257507 3222.0356369018555,1631.0314059257507 3222.0356369018555,1607.0314059257507 3302.0356369018555,1607.0314059257507 "/>
    </g>
    <g stroke="null" id="svg_178">
     <circle stroke="null" id="svg_179" fill="#FFD100" r="48" cy="1583.03138" cx="3510.035559"/>
    </g>
   </g>
   <g stroke="null" transform="matrix(0.27320422435033576,0,0,0.24823320255854442,-680.0112819305175,-337.3981305604278) " id="svg_180"/>
   <g stroke="null" transform="matrix(0.27320422435033576,0,0,0.24823320255854442,-680.0112819305175,-337.3981305604278) " id="svg_181"/>
   <g stroke="null" transform="matrix(0.27320422435033576,0,0,0.24823320255854442,-680.0112819305175,-337.3981305604278) " id="svg_182"/>
   <g stroke="null" transform="matrix(0.27320422435033576,0,0,0.24823320255854442,-680.0112819305175,-337.3981305604278) " id="svg_183"/>
   <g stroke="null" transform="matrix(0.27320422435033576,0,0,0.24823320255854442,-680.0112819305175,-337.3981305604278) " id="svg_184"/>
   <g stroke="null" transform="matrix(0.27320422435033576,0,0,0.24823320255854442,-680.0112819305175,-337.3981305604278) " id="svg_185"/>
   <g stroke="null" transform="matrix(0.27320422435033576,0,0,0.24823320255854442,-680.0112819305175,-337.3981305604278) " id="svg_186"/>
   <g stroke="null" transform="matrix(0.27320422435033576,0,0,0.24823320255854442,-680.0112819305175,-337.3981305604278) " id="svg_187"/>
   <g stroke="null" transform="matrix(0.27320422435033576,0,0,0.24823320255854442,-680.0112819305175,-337.3981305604278) " id="svg_188"/>
   <g stroke="null" transform="matrix(0.27320422435033576,0,0,0.24823320255854442,-680.0112819305175,-337.3981305604278) " id="svg_189"/>
   <g stroke="null" transform="matrix(0.27320422435033576,0,0,0.24823320255854442,-680.0112819305175,-337.3981305604278) " id="svg_190"/>
   <g stroke="null" transform="matrix(0.27320422435033576,0,0,0.24823320255854442,-680.0112819305175,-337.3981305604278) " id="svg_191"/>
   <g stroke="null" transform="matrix(0.27320422435033576,0,0,0.24823320255854442,-680.0112819305175,-337.3981305604278) " id="svg_192"/>
   <g stroke="null" transform="matrix(0.27320422435033576,0,0,0.24823320255854442,-680.0112819305175,-337.3981305604278) " id="svg_193"/>
   <g stroke="null" transform="matrix(0.27320422435033576,0,0,0.24823320255854442,-680.0112819305175,-337.3981305604278) " id="svg_194"/>
  </g>
  <g stroke="null" id="svg_149">
   <path stroke="null" id="svg_116" fill="#F44D3B" d="m227.604334,137.668237c0,3.062271 -2.423851,5.653424 -5.288403,5.653424l-126.040273,0c-2.864552,0 -5.288403,-2.591153 -5.288403,-5.653424l0,-78.205701c0,-3.062271 2.423851,-5.653424 5.288403,-5.653424l126.260623,0c2.864552,0 5.288403,2.591153 5.288403,5.653424l0,78.205701l-0.22035,0z"/>
   <path stroke="null" id="svg_117" fill="#D32A0F" d="m90.987255,59.462536c0,-3.062271 2.423851,-5.653424 5.288403,-5.653424l126.260623,0c2.864552,0 5.288403,2.591153 5.288403,5.653424l0,78.44126c0,3.062271 -2.423851,5.653424 -5.288403,5.653424"/>
   <path stroke="null" id="svg_118" fill="#A00D05" d="m141.667785,53.809112l80.648147,0c2.864552,0 5.288403,2.591153 5.288403,5.653424l0,78.44126c0,3.062271 -2.423851,5.653424 -5.288403,5.653424"/>
   <rect stroke="null" x="2552.005937" transform="matrix(0.27543765905682643,0,0,0.2944491757752853,-611.9312857035761,-316.49411501217503) " id="svg_119" fill="#073C60" height="96" width="496" y="1313.613392"/>
   <polyline stroke="null" id="svg_120" fill="#00233F" points="227.60433959960938,98.56537824869156 227.60433959960938,70.29828077554703 90.98725128173828,70.29828077554703 "/>
   <g stroke="null" transform="matrix(0.27543765905682643,0,0,0.2944491757752853,-611.9312857035761,-316.49411501217503) " id="svg_121">
    <path stroke="null" id="svg_122" fill="#073C60" d="m2744.005957,1451.213354c0,3.2 -2.4,6.4 -6.4,6.4l-131.2,0c-4,0 -6.4,-2.4 -6.4,-6.4l0,-4c0,-3.2 2.4,-5.6 6.4,-5.6l132,0c3.2,0 6.4,2.4 6.4,6.4l0,3.2l-0.8,0z"/>
    <path stroke="null" id="svg_123" fill="#073C60" d="m2744.005957,1483.213354c0,3.2 -2.4,6.4 -6.4,6.4l-131.2,0c-4,0 -6.4,-2.4 -6.4,-6.4l0,-4c0,-3.2 2.4,-5.6 6.4,-5.6l132,0c3.2,0 6.4,2.4 6.4,6.4l0,3.2l-0.8,0z"/>
    <path stroke="null" id="svg_124" fill="#073C60" d="m2744.005957,1515.213354c0,3.2 -2.4,6.4 -6.4,6.4l-131.2,0c-4,0 -6.4,-2.4 -6.4,-6.4l0,-4c0,-3.2 2.4,-5.6 6.4,-5.6l132,0c3.2,0 6.4,2.4 6.4,6.4l0,3.2l-0.8,0z"/>
   </g>
   <path stroke="null" id="svg_125" fill="#23C181" d="m191.246563,120.236846c0,-4.475627 1.983151,-8.244577 4.847703,-10.83573c-2.203501,-1.884475 -5.068053,-3.062271 -8.152955,-3.062271c-7.271554,0 -13.000658,6.124543 -13.000658,13.898001s5.729103,13.898001 13.000658,13.898001c3.084902,0 5.949453,-1.177797 8.152955,-3.062271c-3.084902,-2.591153 -4.847703,-6.360102 -4.847703,-10.83573z"/>
   <path stroke="null" id="svg_126" fill="#0CAA7D" d="m187.941311,134.134847c3.084902,0 5.949453,-1.177797 8.152955,-3.062271c-3.084902,-2.591153 -4.847703,-6.360102 -4.847703,-10.83573c0,-4.475627 1.983151,-8.244577 4.847703,-10.83573c-2.203501,-1.884475 -5.068053,-3.062271 -8.152955,-3.062271"/>
   <path stroke="null" id="svg_127" fill="#F4AD31" d="m204.247221,106.338845c-3.084902,0 -5.949453,1.177797 -8.152955,3.062271c3.084902,2.591153 4.847703,6.360102 4.847703,10.83573c0,4.475627 -1.983151,8.244577 -4.847703,10.83573c2.203501,1.884475 5.068053,3.062271 8.152955,3.062271c7.271554,0 13.000658,-6.124543 13.000658,-13.898001s-5.949453,-13.898001 -13.000658,-13.898001z"/>
   <g stroke="null" transform="matrix(0.27543765905682643,0,0,0.2944491757752853,-611.9312857035761,-316.49411501217503) " id="svg_128">
    <path stroke="null" id="svg_129" fill="#E2821A" d="m2963.205957,1530.413354c26.4,0 47.2,-20.8 47.2,-47.2s-20.8,-47.2 -47.2,-47.2"/>
   </g>
   <g stroke="null" transform="matrix(0.27543765905682643,0,0,0.2944491757752853,-611.9312857035761,-316.49411501217503) " id="svg_130">
    <circle stroke="null" id="svg_131" fill="#EADAEA" r="8.8" cy="1385.613354" cx="2610.405957"/>
    <circle stroke="null" id="svg_132" fill="#EADAEA" r="8.8" cy="1385.613354" cx="2653.605957"/>
    <circle stroke="null" id="svg_133" fill="#EADAEA" r="8.8" cy="1385.613354" cx="2696.805957"/>
   </g>
   <g stroke="null" transform="matrix(0.27543765905682643,0,0,0.2944491757752853,-611.9312857035761,-316.49411501217503) " id="svg_134"/>
   <g stroke="null" transform="matrix(0.27543765905682643,0,0,0.2944491757752853,-611.9312857035761,-316.49411501217503) " id="svg_135"/>
   <g stroke="null" transform="matrix(0.27543765905682643,0,0,0.2944491757752853,-611.9312857035761,-316.49411501217503) " id="svg_136"/>
   <g stroke="null" transform="matrix(0.27543765905682643,0,0,0.2944491757752853,-611.9312857035761,-316.49411501217503) " id="svg_137"/>
   <g stroke="null" transform="matrix(0.27543765905682643,0,0,0.2944491757752853,-611.9312857035761,-316.49411501217503) " id="svg_138"/>
   <g stroke="null" transform="matrix(0.27543765905682643,0,0,0.2944491757752853,-611.9312857035761,-316.49411501217503) " id="svg_139"/>
   <g stroke="null" transform="matrix(0.27543765905682643,0,0,0.2944491757752853,-611.9312857035761,-316.49411501217503) " id="svg_140"/>
   <g stroke="null" transform="matrix(0.27543765905682643,0,0,0.2944491757752853,-611.9312857035761,-316.49411501217503) " id="svg_141"/>
   <g stroke="null" transform="matrix(0.27543765905682643,0,0,0.2944491757752853,-611.9312857035761,-316.49411501217503) " id="svg_142"/>
   <g stroke="null" transform="matrix(0.27543765905682643,0,0,0.2944491757752853,-611.9312857035761,-316.49411501217503) " id="svg_143"/>
   <g stroke="null" transform="matrix(0.27543765905682643,0,0,0.2944491757752853,-611.9312857035761,-316.49411501217503) " id="svg_144"/>
   <g stroke="null" transform="matrix(0.27543765905682643,0,0,0.2944491757752853,-611.9312857035761,-316.49411501217503) " id="svg_145"/>
   <g stroke="null" transform="matrix(0.27543765905682643,0,0,0.2944491757752853,-611.9312857035761,-316.49411501217503) " id="svg_146"/>
   <g stroke="null" transform="matrix(0.27543765905682643,0,0,0.2944491757752853,-611.9312857035761,-316.49411501217503) " id="svg_147"/>
   <g stroke="null" transform="matrix(0.27543765905682643,0,0,0.2944491757752853,-611.9312857035761,-316.49411501217503) " id="svg_148"/>
  </g>
  <g stroke="null" id="svg_111">
   <path stroke="null" id="svg_80" fill="#0099DF" d="m155.583892,163.478824c0,4.236408 -3.793629,7.670697 -8.473371,7.670697l-126.399238,0c-4.679742,0 -8.473371,-3.434795 -8.473371,-7.670697l0,-74.146012c0,-4.236408 3.793629,-7.670443 8.473371,-7.670443l126.398958,0c4.680022,0 8.473371,3.434288 8.473371,7.670443l0,74.146012l0.00028,0z"/>
   <path stroke="null" id="svg_81" opacity="0.15" fill="#202121" d="m18.262083,163.478824l0,-74.146012c0,-4.236408 3.794189,-7.670443 8.473931,-7.670443l-6.025011,0c-4.679462,0 -8.473091,3.434542 -8.473091,7.670443l0,74.146012c0,4.236408 3.793629,7.670697 8.473371,7.670697l6.025011,0c-4.679742,0 -8.474211,-3.434795 -8.474211,-7.670697z"/>
   <g stroke="null" transform="matrix(0.27997261834857806,0,0,0.2534343203168816,-672.0442794533652,-292.8457317962859) " id="svg_82">
    <path stroke="null" id="svg_83" fill="#E7E8E3" d="m2894.547004,1733.409403l-387.9,0c-4.61,0 -8.348,-3.736 -8.348,-8.348c0,-4.611 3.738,-8.348 8.348,-8.348l387.9,0c4.61,0 8.348,3.736 8.348,8.348c0,4.612 -3.737,8.348 -8.348,8.348z"/>
    <path stroke="null" id="svg_84" fill="#E7E8E3" d="m2894.547004,1773.787403l-387.9,0c-4.61,0 -8.348,-3.736 -8.348,-8.348c0,-4.611 3.738,-8.348 8.348,-8.348l387.9,0c4.61,0 8.348,3.736 8.348,8.348c0,4.612 -3.737,8.348 -8.348,8.348z"/>
   </g>
   <path stroke="null" id="svg_85" fill="#D3000B" d="m101.948418,104.189639l2.446121,0c1.206962,-1.092809 2.549711,-2.104519 3.993249,-2.885096c0.518509,-0.265092 1.056617,-0.506869 1.617682,-0.722034c1.927611,-0.799585 4.014527,-1.167825 6.180676,-1.176949c2.166148,0.009124 4.253624,0.37711 6.261588,1.176949c2.033441,0.809469 3.822746,1.987939 5.448267,3.533635l0.040876,0.073243l4.798451,0l-0.122068,-0.220234c-1.870497,-2.355925 -4.309619,-4.343611 -7.238132,-5.668819c-2.927674,-1.472453 -5.936819,-2.208427 -9.108349,-2.208427c-3.17097,0 -6.261588,0.662984 -9.189821,2.061688c-2.927674,1.397944 -5.367075,3.312133 -7.237292,5.741808l-0.162384,0.294237l0.893953,0l1.377185,0z"/>
   <g stroke="null" transform="matrix(0.27997261834857806,0,0,0.2534343203168816,-672.0442794533652,-292.8457317962859) " id="svg_86">
    <polygon stroke="null" id="svg_87" fill="#FFFFFF" points="2767.1648845672607,1580.5644130706787 2767.1648845672607,1613.3883876800537 2767.1648845672607,1650.8584804534912 2781.6888103485107,1650.8584804534912 2781.6888103485107,1604.9624843597412 2781.6888103485107,1583.7604579925537 2781.6888103485107,1580.5644130706787 2781.6888103485107,1578.2404384613037 2767.1648845672607,1578.2404384613037 "/>
    <polygon stroke="null" id="svg_88" fill="#FFFFFF" points="2851.4038982391357,1578.2404384613037 2851.4038982391357,1583.1784267425537 2851.4038982391357,1607.8694667816162 2851.4038982391357,1650.8584804534912 2865.9248943328857,1650.8584804534912 2865.9248943328857,1618.0354824066162 2865.9248943328857,1578.2404384613037 "/>
    <path stroke="null" id="svg_89" fill="#FFFFFF" d="m2757.738004,1588.856403l-0.159,-0.159c-6.68,-8.132 -15.104,-12.199 -25.272,-12.199c-10.748,0 -19.46,3.194 -26.433,9.586c-7.552,6.972 -11.329,15.977 -11.329,27.593c0,11.619 3.777,20.624 11.329,27.596c6.972,6.391 15.685,9.586 26.433,9.586c10.168,0 18.591,-4.067 25.272,-12.2l0.292,-0.29l-4.213,-5.083l-3.919,-4.794c-0.009,0.01 -0.018,0.02 -0.026,0.029l-0.265,-0.319l-0.292,0.29c-5.52,5.228 -11.329,8.134 -17.426,8.134c-6.391,0 -11.911,-2.324 -15.978,-6.679c-4.356,-4.358 -6.389,-9.877 -6.389,-16.558c0,-6.682 2.032,-12.201 6.389,-16.557c4.359,-4.359 9.587,-6.391 15.978,-6.391c6.098,0 11.906,2.905 17.426,8.134l0.292,0.291l8.424,-9.876l-0.098,-0.097l0.098,-0.195l-0.134,0.158z"/>
    <path stroke="null" id="svg_90" fill="#FFFFFF" d="m2828.745004,1637.207403c-4.646,0 -6.389,-2.616 -6.389,-8.135l0,-30.789l0,-8.424l14.524,0l0,-11.619l-14.524,0l0,-8.713l0,-14.232l-14.524,7.841l0,15.104l-14.524,0l0,11.619l14.524,0l0,8.424l0,33.405c0,5.52 0.869,10.165 4.065,13.361c2.906,3.485 6.683,5.228 11.619,5.228c4.937,0 9.296,-0.87 13.072,-3.196l0.292,0l0,-0.291l3.193,-13.651l-0.872,0.579c-4.065,2.326 -6.971,3.489 -10.456,3.489z"/>
   </g>
   <path stroke="null" id="svg_91" fill="#FFC715" d="m57.871489,118.545679c0,1.023114 -0.91719,1.852098 -2.04604,1.852098l-25.388757,0c-1.130249,0 -2.04604,-0.828984 -2.04604,-1.852098l0,-17.909443c0,-1.023114 0.91579,-1.851591 2.04604,-1.851591l25.388757,0c1.12913,0 2.04604,0.82873 2.04604,1.851591l0,17.909443z"/>
   <g stroke="null" transform="matrix(0.27997261834857806,0,0,0.2534343203168816,-672.0442794533652,-292.8457317962859) " id="svg_92">
    <polygon stroke="null" id="svg_93" fill="#FFA617" points="2530.1477947235107,1630.5744228363037 2546.8428630828857,1630.5744228363037 2546.8428630828857,1622.2264003753662 2546.8428630828857,1553.6404628753662 2546.8428630828857,1545.2924404144287 2530.1477947235107,1545.2924404144287 2530.1477947235107,1553.6404628753662 2530.1477947235107,1565.3704433441162 2510.1448650360107,1565.3704433441162 2501.7969646453857,1565.3704433441162 2501.7969646453857,1582.0664882659912 2510.1448650360107,1582.0664882659912 2530.1477947235107,1582.0664882659912 2530.1477947235107,1593.8004970550537 2510.1448650360107,1593.8004970550537 2501.7969646453857,1593.8004970550537 2501.7969646453857,1610.4964199066162 2510.1448650360107,1610.4964199066162 2530.1477947235107,1610.4964199066162 2530.1477947235107,1622.2264003753662 "/>
    <path stroke="null" id="svg_94" fill="#FFA617" d="m2598.749004,1582.066403l8.348,0l0,-16.696l-8.348,0l-15.92,0l0,-11.73l0,-8.348l-16.695,0l0,8.348l0,48.509c0,4.611 3.736,8.348 8.348,8.348l24.268,0l8.348,0l0,-16.696l-8.348,0l-15.92,0l0,-11.735l15.919,0z"/>
   </g>
   <path stroke="null" id="svg_95" opacity="0.15" fill="#202121" d="m32.695231,118.545679l0,-17.909443c0,-1.023114 0.91579,-1.851591 2.04604,-1.851591l-4.304579,0c-1.130249,0 -2.04604,0.82873 -2.04604,1.851591l0,17.909443c0,1.023114 0.91579,1.852098 2.04604,1.852098l4.304859,0c-1.130249,0 -2.04632,-0.828984 -2.04632,-1.852098z"/>
   <g stroke="null" transform="matrix(0.27997261834857806,0,0,0.2534343203168816,-672.0442794533652,-292.8457317962859) " id="svg_96"/>
   <g stroke="null" transform="matrix(0.27997261834857806,0,0,0.2534343203168816,-672.0442794533652,-292.8457317962859) " id="svg_97"/>
   <g stroke="null" transform="matrix(0.27997261834857806,0,0,0.2534343203168816,-672.0442794533652,-292.8457317962859) " id="svg_98"/>
   <g stroke="null" transform="matrix(0.27997261834857806,0,0,0.2534343203168816,-672.0442794533652,-292.8457317962859) " id="svg_99"/>
   <g stroke="null" transform="matrix(0.27997261834857806,0,0,0.2534343203168816,-672.0442794533652,-292.8457317962859) " id="svg_100"/>
   <g stroke="null" transform="matrix(0.27997261834857806,0,0,0.2534343203168816,-672.0442794533652,-292.8457317962859) " id="svg_101"/>
   <g stroke="null" transform="matrix(0.27997261834857806,0,0,0.2534343203168816,-672.0442794533652,-292.8457317962859) " id="svg_102"/>
   <g stroke="null" transform="matrix(0.27997261834857806,0,0,0.2534343203168816,-672.0442794533652,-292.8457317962859) " id="svg_103"/>
   <g stroke="null" transform="matrix(0.27997261834857806,0,0,0.2534343203168816,-672.0442794533652,-292.8457317962859) " id="svg_104"/>
   <g stroke="null" transform="matrix(0.27997261834857806,0,0,0.2534343203168816,-672.0442794533652,-292.8457317962859) " id="svg_105"/>
   <g stroke="null" transform="matrix(0.27997261834857806,0,0,0.2534343203168816,-672.0442794533652,-292.8457317962859) " id="svg_106"/>
   <g stroke="null" transform="matrix(0.27997261834857806,0,0,0.2534343203168816,-672.0442794533652,-292.8457317962859) " id="svg_107"/>
   <g stroke="null" transform="matrix(0.27997261834857806,0,0,0.2534343203168816,-672.0442794533652,-292.8457317962859) " id="svg_108"/>
   <g stroke="null" transform="matrix(0.27997261834857806,0,0,0.2534343203168816,-672.0442794533652,-292.8457317962859) " id="svg_109"/>
   <g stroke="null" transform="matrix(0.27997261834857806,0,0,0.2534343203168816,-672.0442794533652,-292.8457317962859) " id="svg_110"/>
  </g>
 </g>
</svg>