<?xml version="1.0" encoding="iso-8859-1"?>
<!-- Generator: Adobe Illustrator 19.0.0, SVG Export Plug-In . SVG Version: 6.00 Build 0)  -->
<svg version="1.1" id="Layer_1" xmlns="http://www.w3.org/2000/svg" xmlns:xlink="http://www.w3.org/1999/xlink" x="0px" y="0px"
	 viewBox="0 0 491.555 491.555" style="enable-background:new 0 0 491.555 491.555;" xml:space="preserve">
<rect x="260.575" style="fill:#3EA69B;" width="204.339" height="401.459"/>
<path style="fill:#44C4A1;" d="M434.953,386.872H290.534c0-8.483-6.877-15.36-15.36-15.36V29.964c8.483,0,15.36-6.877,15.36-15.36
	h144.419c0,8.483,6.877,15.36,15.36,15.36v341.548C441.83,371.512,434.953,378.389,434.953,386.872z"/>
<g>
	<ellipse style="fill:#3EA69B;" cx="362.745" cy="200.76" rx="69.704" ry="55.066"/>
	<circle style="fill:#3EA69B;" cx="362.745" cy="44.78" r="12.457"/>
	<circle style="fill:#3EA69B;" cx="362.745" cy="356.715" r="12.457"/>
</g>
<path style="fill:#44C4A1;" d="M418.878,203.714h-9.886c-1.262,12.377-6.183,23.486-14.757,33.317l-11.782-9.886
	c6.591-7.583,10.514-15.386,11.782-23.431H367.96c-2.436,10.206-5.643,17.678-9.616,22.417c-3.973,4.739-9.864,7.109-17.673,7.109
	c-7.809,0-14.195-2.722-19.166-8.189c-4.965-5.467-7.671-12.575-8.123-21.337h-6.773v-8.663h6.905
	c0.727-9.93,4.111-19.32,10.162-28.17l12.46,8.806c-4.243,5.962-6.861,12.41-7.858,19.364h25.459v-0.408
	c2.441-10.382,5.737-18.009,9.886-22.88c4.155-4.882,10.184-7.318,18.08-7.318c7.902,0,14.339,2.799,19.298,8.398
	c4.971,5.599,7.676,12.994,8.128,22.208h9.748V203.714z M331.463,213.269c2.028,2.303,4.557,3.45,7.583,3.45
	c3.025,0,5.417-0.904,7.175-2.711c1.763-1.796,3.455-5.235,5.081-10.294H327.87C328.233,207.781,329.429,210.966,331.463,213.269z
	 M390.845,184.757c-2.072-2.524-4.69-3.791-7.853-3.791c-3.158,0-5.665,0.992-7.516,2.976c-1.852,1.995-3.587,5.698-5.213,11.109
	h24.373C394.19,190.72,392.923,187.292,390.845,184.757z"/>
<path style="fill:#FCD462;" d="M355.646,200.284c-5.553-6.89-14.962-9.34-23.168-6.033l-73.754,29.72
	c-9.644,3.886-20.398-3.133-20.342-13.522c0.017-3.045,0.352-5.967,0.82-8.591c1.189-6.65,6.936-11.527,13.69-11.897l7.682-0.422
	v-54.899l-34.896-4.597c-19.674-2.591-38.811,7.594-47.62,25.346L80.875,351.244l90.174,57.425
	c68.109-35.573,89.657-67.956,97.801-96.946c4.641-16.519,14.856-30.912,28.526-41.293l54.791-41.6
	C361.166,221.997,362.74,209.087,355.646,200.284z"/>
<rect x="32.604" y="369.359" transform="matrix(-0.8375 -0.5464 0.5464 -0.8375 8.673 818.7108)" style="fill:#64798A;" width="186.93" height="77.414"/>
<ellipse transform="matrix(-0.8375 -0.5464 0.5464 -0.8375 93.1278 918.2027)" style="fill:#FFFFFF;" cx="183.09" cy="445.254" rx="14.09" ry="14.075"/>
<g>
</g>
<g>
</g>
<g>
</g>
<g>
</g>
<g>
</g>
<g>
</g>
<g>
</g>
<g>
</g>
<g>
</g>
<g>
</g>
<g>
</g>
<g>
</g>
<g>
</g>
<g>
</g>
<g>
</g>
</svg>
