<svg width="427.00000000000006" height="140" xmlns="http://www.w3.org/2000/svg">
 <!-- Created with Method Draw - http://github.com/duopixel/Method-Draw/ -->

 <g>
  <title>background</title>
  <rect fill="none" id="canvas_background" height="142" width="429" y="-1" x="-1"/>
  <g display="none" overflow="visible" y="0" x="0" height="100%" width="100%" id="canvasGrid">
   <rect fill="url(#gridpattern)" stroke-width="0" y="0" x="0" height="100%" width="100%"/>
  </g>
 </g>
 <g>
  <title>Layer 1</title>
  <g stroke="null" id="svg_898">
   <path stroke="null" id="svg_878" fill="#444455" d="m111.669273,103.307988l0,-6.785786l-20.476799,0l0,6.785786c0,2.248605 -2.292167,4.071349 -5.119006,4.071349l-5.119006,0l0,2.714438l40.953211,0l0,-2.714438l-5.119006,0c-2.827226,0 -5.119393,-1.822744 -5.119393,-4.071349z"/>
   <g stroke="null" transform="matrix(0.38660270605669916,0,0,0.3074804640783684,-2206.06944213478,-307.2944830611191) " id="svg_879">
    <path stroke="null" id="svg_880" fill="#5A5D6F" d="m6092.246587,1366.274437l-247.172,0c-4.875,0 -8.828,-3.953 -8.828,-8.828l0,0c0,-4.875 3.953,-8.828 8.828,-8.828l247.172,0c4.875,0 8.828,3.953 8.828,8.828l0,0c0,4.875 -3.953,8.828 -8.828,8.828z"/>
    <path stroke="null" id="svg_881" fill="#5A5D6F" d="m6211.419587,1004.342437l-485.518,0c-7.312,0 -13.241,5.929 -13.241,13.242l0,295.724c0,7.313 5.929,13.241 13.241,13.241l485.517,0c7.313,0 13.241,-5.929 13.241,-13.241l0,-295.724c0.001,-7.313 -5.928,-13.242 -13.24,-13.242z"/>
   </g>
   <path stroke="null" id="svg_882" fill="#444455" d="m191.869231,91.093634l-180.876715,0c-0.942537,0 -1.706464,-0.607581 -1.706464,-1.357219l0,-81.429436c0,-0.749637 0.763927,-1.357219 1.706464,-1.357219l180.876715,0c0.942537,0 1.706464,0.607581 1.706464,1.357219l0,81.429436c0,0.749637 -0.763927,1.357219 -1.706464,1.357219z"/>
   <g stroke="null" transform="matrix(0.38660270605669916,0,0,0.3074804640783684,-2206.06944213478,-307.2944830611191) " id="svg_883"/>
   <g stroke="null" transform="matrix(0.38660270605669916,0,0,0.3074804640783684,-2206.06944213478,-307.2944830611191) " id="svg_884"/>
   <g stroke="null" transform="matrix(0.38660270605669916,0,0,0.3074804640783684,-2206.06944213478,-307.2944830611191) " id="svg_885"/>
   <g stroke="null" transform="matrix(0.38660270605669916,0,0,0.3074804640783684,-2206.06944213478,-307.2944830611191) " id="svg_886"/>
   <g stroke="null" transform="matrix(0.38660270605669916,0,0,0.3074804640783684,-2206.06944213478,-307.2944830611191) " id="svg_887"/>
   <g stroke="null" transform="matrix(0.38660270605669916,0,0,0.3074804640783684,-2206.06944213478,-307.2944830611191) " id="svg_888"/>
   <g stroke="null" transform="matrix(0.38660270605669916,0,0,0.3074804640783684,-2206.06944213478,-307.2944830611191) " id="svg_889"/>
   <g stroke="null" transform="matrix(0.38660270605669916,0,0,0.3074804640783684,-2206.06944213478,-307.2944830611191) " id="svg_890"/>
   <g stroke="null" transform="matrix(0.38660270605669916,0,0,0.3074804640783684,-2206.06944213478,-307.2944830611191) " id="svg_891"/>
   <g stroke="null" transform="matrix(0.38660270605669916,0,0,0.3074804640783684,-2206.06944213478,-307.2944830611191) " id="svg_892"/>
   <g stroke="null" transform="matrix(0.38660270605669916,0,0,0.3074804640783684,-2206.06944213478,-307.2944830611191) " id="svg_893"/>
   <g stroke="null" transform="matrix(0.38660270605669916,0,0,0.3074804640783684,-2206.06944213478,-307.2944830611191) " id="svg_894"/>
   <g stroke="null" transform="matrix(0.38660270605669916,0,0,0.3074804640783684,-2206.06944213478,-307.2944830611191) " id="svg_895"/>
   <g stroke="null" transform="matrix(0.38660270605669916,0,0,0.3074804640783684,-2206.06944213478,-307.2944830611191) " id="svg_896"/>
   <g stroke="null" transform="matrix(0.38660270605669916,0,0,0.3074804640783684,-2206.06944213478,-307.2944830611191) " id="svg_897"/>
  </g>
  <g stroke="null" id="svg_961">
   <path stroke="null" id="svg_930" fill="#5A5D6F" d="m242.664728,109.774895l-27.294941,0c-0.837502,0 -1.516367,-0.701637 -1.516367,-1.567232l0,-42.315721c0,-0.865595 0.678865,-1.567232 1.516367,-1.567232l27.294855,0c0.837502,0 1.516367,0.701637 1.516367,1.567232l0,42.315721c0.000086,0.865595 -0.678779,1.567232 -1.516281,1.567232z"/>
   <g stroke="null" transform="matrix(0.08588878752899264,0,0,0.08876989386956623,-193.0431577264285,-111.07450881592064) " id="svg_931">
    <circle stroke="null" id="svg_932" fill="#D4DEED" r="132.414001" cy="2311.334315" cx="4914.033913"/>
    <circle stroke="null" id="svg_933" fill="#D4DEED" r="70.621002" cy="2081.817315" cx="4914.033913"/>
   </g>
   <circle stroke="null" transform="matrix(0.08588878752899264,0,0,0.08876989386956623,-193.0431577264285,-111.07450881592064) " id="svg_934" fill="#C4CFE3" r="105.931" cy="2311.334316" cx="4914.033912"/>
   <circle stroke="null" transform="matrix(0.08588878752899264,0,0,0.08876989386956623,-193.0431577264285,-111.07450881592064) " id="svg_935" fill="#5A5D6F" r="88.276001" cy="2311.334316" cx="4914.033912"/>
   <circle stroke="null" transform="matrix(0.08588878752899264,0,0,0.08876989386956623,-193.0431577264285,-111.07450881592064) " id="svg_936" fill="#D4DEED" r="70.621002" cy="2311.334316" cx="4914.033912"/>
   <circle stroke="null" transform="matrix(0.08588878752899264,0,0,0.08876989386956623,-193.0431577264285,-111.07450881592064) " id="svg_937" fill="#444455" r="26.483" cy="2311.334316" cx="4914.033912"/>
   <circle stroke="null" transform="matrix(0.08588878752899264,0,0,0.08876989386956623,-193.0431577264285,-111.07450881592064) " id="svg_938" fill="#C4CFE3" r="52.966" cy="2081.817316" cx="4914.033912"/>
   <circle stroke="null" transform="matrix(0.08588878752899264,0,0,0.08876989386956623,-193.0431577264285,-111.07450881592064) " id="svg_939" fill="#444455" r="26.483" cy="2081.817316" cx="4914.033912"/>
   <circle stroke="null" transform="matrix(0.08588878752899264,0,0,0.08876989386956623,-193.0431577264285,-111.07450881592064) " id="svg_940" fill="#D4DEED" r="8.828" cy="2081.817316" cx="4914.033912"/>
   <g stroke="null" transform="matrix(0.08588878752899264,0,0,0.08876989386956623,-193.0431577264285,-111.07450881592064) " id="svg_941">
    <circle stroke="null" id="svg_942" fill="#444455" r="13.241" cy="2015.610315" cx="4777.205913"/>
    <circle stroke="null" id="svg_943" fill="#444455" r="13.241" cy="2015.610315" cx="5050.861913"/>
    <circle stroke="null" id="svg_944" fill="#444455" r="13.241" cy="2448.162315" cx="4777.205913"/>
    <circle stroke="null" id="svg_945" fill="#444455" r="13.241" cy="2448.162315" cx="5050.861913"/>
   </g>
   <g stroke="null" transform="matrix(0.08588878752899264,0,0,0.08876989386956623,-193.0431577264285,-111.07450881592064) " id="svg_946"/>
   <g stroke="null" transform="matrix(0.08588878752899264,0,0,0.08876989386956623,-193.0431577264285,-111.07450881592064) " id="svg_947"/>
   <g stroke="null" transform="matrix(0.08588878752899264,0,0,0.08876989386956623,-193.0431577264285,-111.07450881592064) " id="svg_948"/>
   <g stroke="null" transform="matrix(0.08588878752899264,0,0,0.08876989386956623,-193.0431577264285,-111.07450881592064) " id="svg_949"/>
   <g stroke="null" transform="matrix(0.08588878752899264,0,0,0.08876989386956623,-193.0431577264285,-111.07450881592064) " id="svg_950"/>
   <g stroke="null" transform="matrix(0.08588878752899264,0,0,0.08876989386956623,-193.0431577264285,-111.07450881592064) " id="svg_951"/>
   <g stroke="null" transform="matrix(0.08588878752899264,0,0,0.08876989386956623,-193.0431577264285,-111.07450881592064) " id="svg_952"/>
   <g stroke="null" transform="matrix(0.08588878752899264,0,0,0.08876989386956623,-193.0431577264285,-111.07450881592064) " id="svg_953"/>
   <g stroke="null" transform="matrix(0.08588878752899264,0,0,0.08876989386956623,-193.0431577264285,-111.07450881592064) " id="svg_954"/>
   <g stroke="null" transform="matrix(0.08588878752899264,0,0,0.08876989386956623,-193.0431577264285,-111.07450881592064) " id="svg_955"/>
   <g stroke="null" transform="matrix(0.08588878752899264,0,0,0.08876989386956623,-193.0431577264285,-111.07450881592064) " id="svg_956"/>
   <g stroke="null" transform="matrix(0.08588878752899264,0,0,0.08876989386956623,-193.0431577264285,-111.07450881592064) " id="svg_957"/>
   <g stroke="null" transform="matrix(0.08588878752899264,0,0,0.08876989386956623,-193.0431577264285,-111.07450881592064) " id="svg_958"/>
   <g stroke="null" transform="matrix(0.08588878752899264,0,0,0.08876989386956623,-193.0431577264285,-111.07450881592064) " id="svg_959"/>
   <g stroke="null" transform="matrix(0.08588878752899264,0,0,0.08876989386956623,-193.0431577264285,-111.07450881592064) " id="svg_960"/>
  </g>
  <g stroke="null" id="svg_804">
   <path stroke="null" id="svg_782" fill="#E1EAF6" d="m208.90136,117.422857l-80.841221,0c-1.653659,0 -2.994088,-1.322998 -2.994088,-2.955153l0,-1.47766c0,-0.815994 0.670384,-1.47766 1.497129,-1.47766l83.835308,0c0.826745,0 1.497129,0.661666 1.497129,1.47766l0,1.47766c-0.00017,1.632155 -1.340598,2.955153 -2.994257,2.955153z"/>
   <path stroke="null" id="svg_783" fill="#D4DEED" d="m128.060139,117.422857l80.841221,0c1.653489,0 2.994088,-1.323165 2.994088,-2.955153l-86.829396,0c0,1.631988 1.340598,2.955153 2.994088,2.955153z"/>
   <path stroke="null" id="svg_784" fill="#C4CFE3" d="m173.527369,114.467704l-10.0929,0c-0.72143,0 -1.371803,-0.428167 -1.649419,-1.085314l-0.789435,-1.869839l14.970609,0l-0.789266,1.869839c-0.277786,0.657147 -0.928498,1.085314 -1.649589,1.085314z"/>
   <path stroke="null" id="svg_785" fill="#5A5D6F" d="m208.90136,111.512551l-80.841221,0l0,-47.282947c0,-1.632155 1.340429,-2.955153 2.994088,-2.955153l74.853045,0c1.653659,0 2.994088,1.322998 2.994088,2.955153l0,47.282947z"/>
   <g stroke="null" transform="matrix(0.1695886647295478,0,0,0.1673833346375131,-702.5860680300983,-203.64005653060553) " id="svg_786">
    <path stroke="null" id="svg_787" fill="#444455" d="m5352.626412,1856.3365l-432.552,0c-2.438,0 -4.414,-1.976 -4.414,-4.414l0,-238.345c0,-2.438 1.976,-4.414 4.414,-4.414l432.552,0c2.438,0 4.414,1.976 4.414,4.414l0,238.345c0,2.438 -1.977,4.414 -4.414,4.414z"/>
    <circle stroke="null" id="svg_788" fill="#444455" r="4.414" cy="1595.9225" cx="5136.350412"/>
   </g>
   <g stroke="null" transform="matrix(0.1695886647295478,0,0,0.1673833346375131,-702.5860680300983,-203.64005653060553) " id="svg_789"/>
   <g stroke="null" transform="matrix(0.1695886647295478,0,0,0.1673833346375131,-702.5860680300983,-203.64005653060553) " id="svg_790"/>
   <g stroke="null" transform="matrix(0.1695886647295478,0,0,0.1673833346375131,-702.5860680300983,-203.64005653060553) " id="svg_791"/>
   <g stroke="null" transform="matrix(0.1695886647295478,0,0,0.1673833346375131,-702.5860680300983,-203.64005653060553) " id="svg_792"/>
   <g stroke="null" transform="matrix(0.1695886647295478,0,0,0.1673833346375131,-702.5860680300983,-203.64005653060553) " id="svg_793"/>
   <g stroke="null" transform="matrix(0.1695886647295478,0,0,0.1673833346375131,-702.5860680300983,-203.64005653060553) " id="svg_794"/>
   <g stroke="null" transform="matrix(0.1695886647295478,0,0,0.1673833346375131,-702.5860680300983,-203.64005653060553) " id="svg_795"/>
   <g stroke="null" transform="matrix(0.1695886647295478,0,0,0.1673833346375131,-702.5860680300983,-203.64005653060553) " id="svg_796"/>
   <g stroke="null" transform="matrix(0.1695886647295478,0,0,0.1673833346375131,-702.5860680300983,-203.64005653060553) " id="svg_797"/>
   <g stroke="null" transform="matrix(0.1695886647295478,0,0,0.1673833346375131,-702.5860680300983,-203.64005653060553) " id="svg_798"/>
   <g stroke="null" transform="matrix(0.1695886647295478,0,0,0.1673833346375131,-702.5860680300983,-203.64005653060553) " id="svg_799"/>
   <g stroke="null" transform="matrix(0.1695886647295478,0,0,0.1673833346375131,-702.5860680300983,-203.64005653060553) " id="svg_800"/>
   <g stroke="null" transform="matrix(0.1695886647295478,0,0,0.1673833346375131,-702.5860680300983,-203.64005653060553) " id="svg_801"/>
   <g stroke="null" transform="matrix(0.1695886647295478,0,0,0.1673833346375131,-702.5860680300983,-203.64005653060553) " id="svg_802"/>
   <g stroke="null" transform="matrix(0.1695886647295478,0,0,0.1673833346375131,-702.5860680300983,-203.64005653060553) " id="svg_803"/>
  </g>
  <g stroke="null" id="svg_925">
   <path stroke="null" id="svg_903" fill="#5A5D6F" d="m105.889208,34.772l-100.104077,0c-2.047693,0 -3.70752,1.532478 -3.70752,3.423064l0,56.481045l107.519116,0l0,-56.481045c0,-1.890586 -1.659826,-3.423064 -3.70752,-3.423064z"/>
   <path stroke="null" id="svg_904" fill="#E1EAF6" d="m2.077612,94.676303l0,5.134693c0,1.890586 1.659826,3.423064 3.70752,3.423064l100.104077,0c2.047693,0 3.70752,-1.532478 3.70752,-3.423064l0,-5.134693l-107.519116,0z"/>
   <polygon stroke="null" id="svg_905" fill="#D4DEED" points="70.66751515865326,116.92631697654724 41.00693166255951,116.92631697654724 42.86082875728607,103.23404860496521 68.81360280513763,103.23404860496521 "/>
   <polygon stroke="null" id="svg_906" fill="#C4CFE3" points="69.27710378170013,106.65709853172302 68.81360280513763,103.23404860496521 42.86082875728607,103.23404860496521 42.39732778072357,106.65709853172302 "/>
   <circle stroke="null" transform="matrix(0.20999827280553032,0,0,0.19388639282288644,-678.5789645093605,-240.52853552701964) " id="svg_907" fill="#D4DEED" r="13.241" cy="1750.941429" cx="3497.24845"/>
   <path stroke="null" id="svg_908" fill="#E1EAF6" d="m72.521112,118.637947l-33.367886,0c-1.023742,0 -1.853865,-0.766433 -1.853865,-1.711629l0,0c0,-0.945196 0.830123,-1.711629 1.853865,-1.711629l33.368096,0c1.023742,0 1.853865,0.766433 1.853865,1.711629l0,0c-0.00021,0.945196 -0.830333,1.711629 -1.854075,1.711629z"/>
   <path stroke="null" id="svg_909" fill="#444455" d="m103.108411,89.54161l-94.542482,0c-0.511976,0 -0.926932,-0.38312 -0.926932,-0.855815l0,-47.923287c0,-0.472695 0.414957,-0.855815 0.926932,-0.855815l94.542692,0c0.511976,0 0.926932,0.38312 0.926932,0.855815l0,47.923287c-0.00021,0.472695 -0.415167,0.855815 -0.927142,0.855815z"/>
   <g stroke="null" transform="matrix(0.20999827280553032,0,0,0.19388639282288644,-678.5789645093605,-240.52853552701964) " id="svg_910"/>
   <g stroke="null" transform="matrix(0.20999827280553032,0,0,0.19388639282288644,-678.5789645093605,-240.52853552701964) " id="svg_911"/>
   <g stroke="null" transform="matrix(0.20999827280553032,0,0,0.19388639282288644,-678.5789645093605,-240.52853552701964) " id="svg_912"/>
   <g stroke="null" transform="matrix(0.20999827280553032,0,0,0.19388639282288644,-678.5789645093605,-240.52853552701964) " id="svg_913"/>
   <g stroke="null" transform="matrix(0.20999827280553032,0,0,0.19388639282288644,-678.5789645093605,-240.52853552701964) " id="svg_914"/>
   <g stroke="null" transform="matrix(0.20999827280553032,0,0,0.19388639282288644,-678.5789645093605,-240.52853552701964) " id="svg_915"/>
   <g stroke="null" transform="matrix(0.20999827280553032,0,0,0.19388639282288644,-678.5789645093605,-240.52853552701964) " id="svg_916"/>
   <g stroke="null" transform="matrix(0.20999827280553032,0,0,0.19388639282288644,-678.5789645093605,-240.52853552701964) " id="svg_917"/>
   <g stroke="null" transform="matrix(0.20999827280553032,0,0,0.19388639282288644,-678.5789645093605,-240.52853552701964) " id="svg_918"/>
   <g stroke="null" transform="matrix(0.20999827280553032,0,0,0.19388639282288644,-678.5789645093605,-240.52853552701964) " id="svg_919"/>
   <g stroke="null" transform="matrix(0.20999827280553032,0,0,0.19388639282288644,-678.5789645093605,-240.52853552701964) " id="svg_920"/>
   <g stroke="null" transform="matrix(0.20999827280553032,0,0,0.19388639282288644,-678.5789645093605,-240.52853552701964) " id="svg_921"/>
   <g stroke="null" transform="matrix(0.20999827280553032,0,0,0.19388639282288644,-678.5789645093605,-240.52853552701964) " id="svg_922"/>
   <g stroke="null" transform="matrix(0.20999827280553032,0,0,0.19388639282288644,-678.5789645093605,-240.52853552701964) " id="svg_923"/>
   <g stroke="null" transform="matrix(0.20999827280553032,0,0,0.19388639282288644,-678.5789645093605,-240.52853552701964) " id="svg_924"/>
  </g>
  <g stroke="null" id="svg_1076">
   <path stroke="null" id="svg_1005" fill="#929CB4" d="m91.224135,136.380949l-71.923351,0c-1.471238,0 -2.6638,-0.814863 -2.6638,-1.820143l0,-21.84192c0,-1.00528 1.192562,-1.820143 2.6638,-1.820143l71.923351,0c1.471238,0 2.6638,0.814863 2.6638,1.820143l0,21.84192c0,1.00528 -1.192562,1.820143 -2.6638,1.820143z"/>
   <g stroke="null" transform="matrix(0.15088076297456288,0,0,0.10309503216961469,-445.9498701701401,-109.23416896868312) " id="svg_1006">
    <path stroke="null" id="svg_1007" fill="#6F7588" d="m3136.530973,2214.690686l-35.311,0c-2.438,0 -4.414,-1.976 -4.414,-4.414l0,-17.655c0,-2.438 1.976,-4.414 4.414,-4.414l35.31,0c2.438,0 4.414,1.976 4.414,4.414l0,17.655c0,2.438 -1.976,4.414 -4.413,4.414z"/>
    <path stroke="null" id="svg_1008" fill="#6F7588" d="m3136.530973,2179.380686l-35.311,0c-2.438,0 -4.414,-1.976 -4.414,-4.414l0,-8.828c0,-2.438 1.976,-4.414 4.414,-4.414l35.31,0c2.438,0 4.414,1.976 4.414,4.414l0,8.828c0,2.437 -1.976,4.414 -4.413,4.414z"/>
    <path stroke="null" id="svg_1009" fill="#6F7588" d="m3180.668973,2179.380686l-26.483,0c-2.438,0 -4.414,-1.976 -4.414,-4.414l0,-8.828c0,-2.438 1.976,-4.414 4.414,-4.414l26.483,0c2.438,0 4.414,1.976 4.414,4.414l0,8.828c-0.001,2.437 -1.977,4.414 -4.414,4.414z"/>
    <path stroke="null" id="svg_1010" fill="#6F7588" d="m3224.806973,2179.380686l-26.483,0c-2.438,0 -4.414,-1.976 -4.414,-4.414l0,-8.828c0,-2.438 1.976,-4.414 4.414,-4.414l26.483,0c2.438,0 4.414,1.976 4.414,4.414l0,8.828c-0.001,2.437 -1.977,4.414 -4.414,4.414z"/>
    <path stroke="null" id="svg_1011" fill="#6F7588" d="m3268.943973,2179.380686l-26.483,0c-2.438,0 -4.414,-1.976 -4.414,-4.414l0,-8.828c0,-2.438 1.976,-4.414 4.414,-4.414l26.483,0c2.438,0 4.414,1.976 4.414,4.414l0,8.828c0,2.437 -1.976,4.414 -4.414,4.414z"/>
    <path stroke="null" id="svg_1012" fill="#6F7588" d="m3313.081973,2179.380686l-26.482,0c-2.438,0 -4.414,-1.976 -4.414,-4.414l0,-8.828c0,-2.438 1.976,-4.414 4.414,-4.414l26.483,0c2.438,0 4.414,1.976 4.414,4.414l0,8.828c-0.001,2.437 -1.977,4.414 -4.415,4.414z"/>
    <path stroke="null" id="svg_1013" fill="#6F7588" d="m3357.219973,2179.380686l-26.483,0c-2.438,0 -4.414,-1.976 -4.414,-4.414l0,-8.828c0,-2.438 1.976,-4.414 4.414,-4.414l26.483,0c2.438,0 4.414,1.976 4.414,4.414l0,8.828c0,2.437 -1.976,4.414 -4.414,4.414z"/>
    <path stroke="null" id="svg_1014" fill="#6F7588" d="m3401.357973,2179.380686l-26.483,0c-2.438,0 -4.414,-1.976 -4.414,-4.414l0,-8.828c0,-2.438 1.976,-4.414 4.414,-4.414l26.483,0c2.438,0 4.414,1.976 4.414,4.414l0,8.828c0,2.437 -1.976,4.414 -4.414,4.414z"/>
    <path stroke="null" id="svg_1015" fill="#6F7588" d="m3445.495973,2179.380686l-26.483,0c-2.438,0 -4.414,-1.976 -4.414,-4.414l0,-8.828c0,-2.438 1.976,-4.414 4.414,-4.414l26.483,0c2.438,0 4.414,1.976 4.414,4.414l0,8.828c0,2.437 -1.976,4.414 -4.414,4.414z"/>
    <path stroke="null" id="svg_1016" fill="#6F7588" d="m3489.633973,2179.380686l-26.483,0c-2.438,0 -4.414,-1.976 -4.414,-4.414l0,-8.828c0,-2.438 1.976,-4.414 4.414,-4.414l26.483,0c2.438,0 4.414,1.976 4.414,4.414l0,8.828c0,2.437 -1.976,4.414 -4.414,4.414z"/>
    <path stroke="null" id="svg_1017" fill="#6F7588" d="m3542.599973,2179.380686l-35.31,0c-2.438,0 -4.414,-1.976 -4.414,-4.414l0,-8.828c0,-2.438 1.976,-4.414 4.414,-4.414l35.31,0c2.438,0 4.414,1.976 4.414,4.414l0,8.828c-0.001,2.437 -1.977,4.414 -4.414,4.414z"/>
    <path stroke="null" id="svg_1018" fill="#6F7588" d="m3180.668973,2285.311686l-79.449,0c-2.438,0 -4.414,-1.976 -4.414,-4.414l0,-17.655c0,-2.438 1.976,-4.414 4.414,-4.414l79.448,0c2.438,0 4.414,1.976 4.414,4.414l0,17.655c0,2.437 -1.976,4.414 -4.413,4.414z"/>
    <path stroke="null" id="svg_1019" fill="#6F7588" d="m3163.012973,2250.000686l-61.793,0c-2.438,0 -4.414,-1.976 -4.414,-4.414l0,-17.655c0,-2.438 1.976,-4.414 4.414,-4.414l61.793,0c2.438,0 4.414,1.976 4.414,4.414l0,17.655c0,2.438 -1.976,4.414 -4.414,4.414z"/>
    <path stroke="null" id="svg_1020" fill="#6F7588" d="m3163.012973,2320.621686l-61.793,0c-2.438,0 -4.414,-1.976 -4.414,-4.414l0,-17.655c0,-2.438 1.976,-4.414 4.414,-4.414l61.793,0c2.438,0 4.414,1.976 4.414,4.414l0,17.655c0,2.438 -1.976,4.414 -4.414,4.414z"/>
    <path stroke="null" id="svg_1021" fill="#6F7588" d="m3224.806973,2214.690686l-26.483,0c-2.438,0 -4.414,-1.976 -4.414,-4.414l0,-17.655c0,-2.438 1.976,-4.414 4.414,-4.414l26.483,0c2.438,0 4.414,1.976 4.414,4.414l0,17.655c-0.001,2.438 -1.977,4.414 -4.414,4.414z"/>
    <path stroke="null" id="svg_1022" fill="#6F7588" d="m3180.668973,2214.690686l-26.483,0c-2.438,0 -4.414,-1.976 -4.414,-4.414l0,-17.655c0,-2.438 1.976,-4.414 4.414,-4.414l26.483,0c2.438,0 4.414,1.976 4.414,4.414l0,17.655c-0.001,2.438 -1.977,4.414 -4.414,4.414z"/>
    <path stroke="null" id="svg_1023" fill="#6F7588" d="m3268.943973,2214.690686l-26.483,0c-2.438,0 -4.414,-1.976 -4.414,-4.414l0,-17.655c0,-2.438 1.976,-4.414 4.414,-4.414l26.483,0c2.438,0 4.414,1.976 4.414,4.414l0,17.655c0,2.438 -1.976,4.414 -4.414,4.414z"/>
    <path stroke="null" id="svg_1024" fill="#6F7588" d="m3313.081973,2214.690686l-26.482,0c-2.438,0 -4.414,-1.976 -4.414,-4.414l0,-17.655c0,-2.438 1.976,-4.414 4.414,-4.414l26.483,0c2.438,0 4.414,1.976 4.414,4.414l0,17.655c-0.001,2.438 -1.977,4.414 -4.415,4.414z"/>
    <path stroke="null" id="svg_1025" fill="#6F7588" d="m3357.219973,2214.690686l-26.483,0c-2.438,0 -4.414,-1.976 -4.414,-4.414l0,-17.655c0,-2.438 1.976,-4.414 4.414,-4.414l26.483,0c2.438,0 4.414,1.976 4.414,4.414l0,17.655c0,2.438 -1.976,4.414 -4.414,4.414z"/>
    <path stroke="null" id="svg_1026" fill="#6F7588" d="m3401.357973,2214.690686l-26.483,0c-2.438,0 -4.414,-1.976 -4.414,-4.414l0,-17.655c0,-2.438 1.976,-4.414 4.414,-4.414l26.483,0c2.438,0 4.414,1.976 4.414,4.414l0,17.655c0,2.438 -1.976,4.414 -4.414,4.414z"/>
    <path stroke="null" id="svg_1027" fill="#6F7588" d="m3445.495973,2214.690686l-26.483,0c-2.438,0 -4.414,-1.976 -4.414,-4.414l0,-17.655c0,-2.438 1.976,-4.414 4.414,-4.414l26.483,0c2.438,0 4.414,1.976 4.414,4.414l0,17.655c0,2.438 -1.976,4.414 -4.414,4.414z"/>
    <path stroke="null" id="svg_1028" fill="#6F7588" d="m3489.633973,2214.690686l-26.483,0c-2.438,0 -4.414,-1.976 -4.414,-4.414l0,-17.655c0,-2.438 1.976,-4.414 4.414,-4.414l26.483,0c2.438,0 4.414,1.976 4.414,4.414l0,17.655c0,2.438 -1.976,4.414 -4.414,4.414z"/>
    <path stroke="null" id="svg_1029" fill="#6F7588" d="m3542.599973,2214.690686l-35.31,0c-2.438,0 -4.414,-1.976 -4.414,-4.414l0,-17.655c0,-2.438 1.976,-4.414 4.414,-4.414l35.31,0c2.438,0 4.414,1.976 4.414,4.414l0,17.655c-0.001,2.438 -1.977,4.414 -4.414,4.414z"/>
    <path stroke="null" id="svg_1030" fill="#6F7588" d="m3207.150973,2250.000686l-26.483,0c-2.438,0 -4.414,-1.976 -4.414,-4.414l0,-17.655c0,-2.438 1.976,-4.414 4.414,-4.414l26.483,0c2.438,0 4.414,1.976 4.414,4.414l0,17.655c0,2.438 -1.976,4.414 -4.414,4.414z"/>
    <path stroke="null" id="svg_1031" fill="#6F7588" d="m3251.288973,2250.000686l-26.483,0c-2.438,0 -4.414,-1.976 -4.414,-4.414l0,-17.655c0,-2.438 1.976,-4.414 4.414,-4.414l26.483,0c2.438,0 4.414,1.976 4.414,4.414l0,17.655c0,2.438 -1.976,4.414 -4.414,4.414z"/>
    <path stroke="null" id="svg_1032" fill="#6F7588" d="m3295.426973,2250.000686l-26.483,0c-2.438,0 -4.414,-1.976 -4.414,-4.414l0,-17.655c0,-2.438 1.976,-4.414 4.414,-4.414l26.483,0c2.438,0 4.414,1.976 4.414,4.414l0,17.655c0,2.438 -1.976,4.414 -4.414,4.414z"/>
    <path stroke="null" id="svg_1033" fill="#6F7588" d="m3339.564973,2250.000686l-26.483,0c-2.438,0 -4.414,-1.976 -4.414,-4.414l0,-17.655c0,-2.438 1.976,-4.414 4.414,-4.414l26.483,0c2.438,0 4.414,1.976 4.414,4.414l0,17.655c0,2.438 -1.976,4.414 -4.414,4.414z"/>
    <path stroke="null" id="svg_1034" fill="#6F7588" d="m3383.702973,2250.000686l-26.483,0c-2.438,0 -4.414,-1.976 -4.414,-4.414l0,-17.655c0,-2.438 1.976,-4.414 4.414,-4.414l26.483,0c2.438,0 4.414,1.976 4.414,4.414l0,17.655c0,2.438 -1.976,4.414 -4.414,4.414z"/>
    <path stroke="null" id="svg_1035" fill="#6F7588" d="m3427.840973,2250.000686l-26.483,0c-2.438,0 -4.414,-1.976 -4.414,-4.414l0,-17.655c0,-2.438 1.976,-4.414 4.414,-4.414l26.483,0c2.438,0 4.414,1.976 4.414,4.414l0,17.655c0,2.438 -1.976,4.414 -4.414,4.414z"/>
    <path stroke="null" id="svg_1036" fill="#6F7588" d="m3471.978973,2250.000686l-26.483,0c-2.438,0 -4.414,-1.976 -4.414,-4.414l0,-17.655c0,-2.438 1.976,-4.414 4.414,-4.414l26.483,0c2.438,0 4.414,1.976 4.414,4.414l0,17.655c0,2.438 -1.976,4.414 -4.414,4.414z"/>
    <path stroke="null" id="svg_1037" fill="#6F7588" d="m3542.599973,2250.000686l-52.966,0c-2.438,0 -4.414,-1.976 -4.414,-4.414l0,-17.655c0,-2.438 1.976,-4.414 4.414,-4.414l52.966,0c2.438,0 4.414,1.976 4.414,4.414l0,17.655c-0.001,2.438 -1.977,4.414 -4.414,4.414z"/>
    <path stroke="null" id="svg_1038" fill="#6F7588" d="m3224.806973,2285.311686l-26.483,0c-2.438,0 -4.414,-1.976 -4.414,-4.414l0,-17.655c0,-2.438 1.976,-4.414 4.414,-4.414l26.483,0c2.438,0 4.414,1.976 4.414,4.414l0,17.655c-0.001,2.437 -1.977,4.414 -4.414,4.414z"/>
    <path stroke="null" id="svg_1039" fill="#6F7588" d="m3224.806973,2355.931686l-26.483,0c-2.438,0 -4.414,-1.976 -4.414,-4.414l0,-17.655c0,-2.438 1.976,-4.414 4.414,-4.414l26.483,0c2.438,0 4.414,1.976 4.414,4.414l0,17.655c-0.001,2.438 -1.977,4.414 -4.414,4.414z"/>
    <path stroke="null" id="svg_1040" fill="#6F7588" d="m3445.495973,2355.931686l-26.483,0c-2.438,0 -4.414,-1.976 -4.414,-4.414l0,-17.655c0,-2.438 1.976,-4.414 4.414,-4.414l26.483,0c2.438,0 4.414,1.976 4.414,4.414l0,17.655c0,2.438 -1.976,4.414 -4.414,4.414z"/>
    <path stroke="null" id="svg_1041" fill="#6F7588" d="m3268.943973,2285.311686l-26.483,0c-2.438,0 -4.414,-1.976 -4.414,-4.414l0,-17.655c0,-2.438 1.976,-4.414 4.414,-4.414l26.483,0c2.438,0 4.414,1.976 4.414,4.414l0,17.655c0,2.437 -1.976,4.414 -4.414,4.414z"/>
    <path stroke="null" id="svg_1042" fill="#6F7588" d="m3313.081973,2285.311686l-26.482,0c-2.438,0 -4.414,-1.976 -4.414,-4.414l0,-17.655c0,-2.438 1.976,-4.414 4.414,-4.414l26.483,0c2.438,0 4.414,1.976 4.414,4.414l0,17.655c-0.001,2.437 -1.977,4.414 -4.415,4.414z"/>
    <path stroke="null" id="svg_1043" fill="#6F7588" d="m3357.219973,2285.311686l-26.483,0c-2.438,0 -4.414,-1.976 -4.414,-4.414l0,-17.655c0,-2.438 1.976,-4.414 4.414,-4.414l26.483,0c2.438,0 4.414,1.976 4.414,4.414l0,17.655c0,2.437 -1.976,4.414 -4.414,4.414z"/>
    <path stroke="null" id="svg_1044" fill="#6F7588" d="m3401.357973,2285.311686l-26.483,0c-2.438,0 -4.414,-1.976 -4.414,-4.414l0,-17.655c0,-2.438 1.976,-4.414 4.414,-4.414l26.483,0c2.438,0 4.414,1.976 4.414,4.414l0,17.655c0,2.437 -1.976,4.414 -4.414,4.414z"/>
    <path stroke="null" id="svg_1045" fill="#6F7588" d="m3445.495973,2285.311686l-26.483,0c-2.438,0 -4.414,-1.976 -4.414,-4.414l0,-17.655c0,-2.438 1.976,-4.414 4.414,-4.414l26.483,0c2.438,0 4.414,1.976 4.414,4.414l0,17.655c0,2.437 -1.976,4.414 -4.414,4.414z"/>
    <path stroke="null" id="svg_1046" fill="#6F7588" d="m3489.633973,2285.311686l-26.483,0c-2.438,0 -4.414,-1.976 -4.414,-4.414l0,-17.655c0,-2.438 1.976,-4.414 4.414,-4.414l26.483,0c2.438,0 4.414,1.976 4.414,4.414l0,17.655c0,2.437 -1.976,4.414 -4.414,4.414z"/>
    <path stroke="null" id="svg_1047" fill="#6F7588" d="m3542.599973,2285.311686l-35.31,0c-2.438,0 -4.414,-1.976 -4.414,-4.414l0,-17.655c0,-2.438 1.976,-4.414 4.414,-4.414l35.31,0c2.438,0 4.414,1.976 4.414,4.414l0,17.655c-0.001,2.437 -1.977,4.414 -4.414,4.414z"/>
    <path stroke="null" id="svg_1048" fill="#6F7588" d="m3207.150973,2320.621686l-26.483,0c-2.438,0 -4.414,-1.976 -4.414,-4.414l0,-17.655c0,-2.438 1.976,-4.414 4.414,-4.414l26.483,0c2.438,0 4.414,1.976 4.414,4.414l0,17.655c0,2.438 -1.976,4.414 -4.414,4.414z"/>
    <path stroke="null" id="svg_1049" fill="#6F7588" d="m3136.530973,2355.931686l-35.311,0c-2.438,0 -4.414,-1.976 -4.414,-4.414l0,-17.655c0,-2.438 1.976,-4.414 4.414,-4.414l35.31,0c2.438,0 4.414,1.976 4.414,4.414l0,17.655c0,2.438 -1.976,4.414 -4.413,4.414z"/>
    <path stroke="null" id="svg_1050" fill="#6F7588" d="m3489.633973,2355.931686l-26.483,0c-2.438,0 -4.414,-1.976 -4.414,-4.414l0,-17.655c0,-2.438 1.976,-4.414 4.414,-4.414l26.483,0c2.438,0 4.414,1.976 4.414,4.414l0,17.655c0,2.438 -1.976,4.414 -4.414,4.414z"/>
    <path stroke="null" id="svg_1051" fill="#6F7588" d="m3542.599973,2355.931686l-35.31,0c-2.438,0 -4.414,-1.976 -4.414,-4.414l0,-17.655c0,-2.438 1.976,-4.414 4.414,-4.414l35.31,0c2.438,0 4.414,1.976 4.414,4.414l0,17.655c-0.001,2.438 -1.977,4.414 -4.414,4.414z"/>
    <path stroke="null" id="svg_1052" fill="#6F7588" d="m3180.668973,2355.931686l-26.483,0c-2.438,0 -4.414,-1.976 -4.414,-4.414l0,-17.655c0,-2.438 1.976,-4.414 4.414,-4.414l26.483,0c2.438,0 4.414,1.976 4.414,4.414l0,17.655c-0.001,2.438 -1.977,4.414 -4.414,4.414z"/>
    <path stroke="null" id="svg_1053" fill="#6F7588" d="m3251.288973,2320.621686l-26.483,0c-2.438,0 -4.414,-1.976 -4.414,-4.414l0,-17.655c0,-2.438 1.976,-4.414 4.414,-4.414l26.483,0c2.438,0 4.414,1.976 4.414,4.414l0,17.655c0,2.438 -1.976,4.414 -4.414,4.414z"/>
    <path stroke="null" id="svg_1054" fill="#6F7588" d="m3295.426973,2320.621686l-26.483,0c-2.438,0 -4.414,-1.976 -4.414,-4.414l0,-17.655c0,-2.438 1.976,-4.414 4.414,-4.414l26.483,0c2.438,0 4.414,1.976 4.414,4.414l0,17.655c0,2.438 -1.976,4.414 -4.414,4.414z"/>
    <path stroke="null" id="svg_1055" fill="#6F7588" d="m3401.357973,2355.931686l-158.896,0c-2.438,0 -4.414,-1.976 -4.414,-4.414l0,-17.655c0,-2.438 1.976,-4.414 4.414,-4.414l158.897,0c2.438,0 4.414,1.976 4.414,4.414l0,17.655c-0.001,2.438 -1.977,4.414 -4.415,4.414z"/>
    <path stroke="null" id="svg_1056" fill="#6F7588" d="m3339.564973,2320.621686l-26.483,0c-2.438,0 -4.414,-1.976 -4.414,-4.414l0,-17.655c0,-2.438 1.976,-4.414 4.414,-4.414l26.483,0c2.438,0 4.414,1.976 4.414,4.414l0,17.655c0,2.438 -1.976,4.414 -4.414,4.414z"/>
    <path stroke="null" id="svg_1057" fill="#6F7588" d="m3383.702973,2320.621686l-26.483,0c-2.438,0 -4.414,-1.976 -4.414,-4.414l0,-17.655c0,-2.438 1.976,-4.414 4.414,-4.414l26.483,0c2.438,0 4.414,1.976 4.414,4.414l0,17.655c0,2.438 -1.976,4.414 -4.414,4.414z"/>
    <path stroke="null" id="svg_1058" fill="#6F7588" d="m3427.840973,2320.621686l-26.483,0c-2.438,0 -4.414,-1.976 -4.414,-4.414l0,-17.655c0,-2.438 1.976,-4.414 4.414,-4.414l26.483,0c2.438,0 4.414,1.976 4.414,4.414l0,17.655c0,2.438 -1.976,4.414 -4.414,4.414z"/>
    <path stroke="null" id="svg_1059" fill="#6F7588" d="m3471.978973,2320.621686l-26.483,0c-2.438,0 -4.414,-1.976 -4.414,-4.414l0,-17.655c0,-2.438 1.976,-4.414 4.414,-4.414l26.483,0c2.438,0 4.414,1.976 4.414,4.414l0,17.655c0,2.438 -1.976,4.414 -4.414,4.414z"/>
    <path stroke="null" id="svg_1060" fill="#6F7588" d="m3542.599973,2320.621686l-52.966,0c-2.438,0 -4.414,-1.976 -4.414,-4.414l0,-17.655c0,-2.438 1.976,-4.414 4.414,-4.414l52.966,0c2.438,0 4.414,1.976 4.414,4.414l0,17.655c-0.001,2.438 -1.977,4.414 -4.414,4.414z"/>
   </g>
   <g stroke="null" transform="matrix(0.15088076297456288,0,0,0.10309503216961469,-445.9498701701401,-109.23416896868312) " id="svg_1061"/>
   <g stroke="null" transform="matrix(0.15088076297456288,0,0,0.10309503216961469,-445.9498701701401,-109.23416896868312) " id="svg_1062"/>
   <g stroke="null" transform="matrix(0.15088076297456288,0,0,0.10309503216961469,-445.9498701701401,-109.23416896868312) " id="svg_1063"/>
   <g stroke="null" transform="matrix(0.15088076297456288,0,0,0.10309503216961469,-445.9498701701401,-109.23416896868312) " id="svg_1064"/>
   <g stroke="null" transform="matrix(0.15088076297456288,0,0,0.10309503216961469,-445.9498701701401,-109.23416896868312) " id="svg_1065"/>
   <g stroke="null" transform="matrix(0.15088076297456288,0,0,0.10309503216961469,-445.9498701701401,-109.23416896868312) " id="svg_1066"/>
   <g stroke="null" transform="matrix(0.15088076297456288,0,0,0.10309503216961469,-445.9498701701401,-109.23416896868312) " id="svg_1067"/>
   <g stroke="null" transform="matrix(0.15088076297456288,0,0,0.10309503216961469,-445.9498701701401,-109.23416896868312) " id="svg_1068"/>
   <g stroke="null" transform="matrix(0.15088076297456288,0,0,0.10309503216961469,-445.9498701701401,-109.23416896868312) " id="svg_1069"/>
   <g stroke="null" transform="matrix(0.15088076297456288,0,0,0.10309503216961469,-445.9498701701401,-109.23416896868312) " id="svg_1070"/>
   <g stroke="null" transform="matrix(0.15088076297456288,0,0,0.10309503216961469,-445.9498701701401,-109.23416896868312) " id="svg_1071"/>
   <g stroke="null" transform="matrix(0.15088076297456288,0,0,0.10309503216961469,-445.9498701701401,-109.23416896868312) " id="svg_1072"/>
   <g stroke="null" transform="matrix(0.15088076297456288,0,0,0.10309503216961469,-445.9498701701401,-109.23416896868312) " id="svg_1073"/>
   <g stroke="null" transform="matrix(0.15088076297456288,0,0,0.10309503216961469,-445.9498701701401,-109.23416896868312) " id="svg_1074"/>
   <g stroke="null" transform="matrix(0.15088076297456288,0,0,0.10309503216961469,-445.9498701701401,-109.23416896868312) " id="svg_1075"/>
  </g>
  <g stroke="null" id="svg_842">
   <circle stroke="null" transform="matrix(0.06767403267734617,0,0,0.06930075752743077,-24.87776141107952,-29.47249760683917) " id="svg_809" fill="#6F7588" r="26.483" cy="1914.326938" cx="2876.628799"/>
   <rect stroke="null" transform="matrix(0.06767403267734617,0,0,0.06930075752743077,-24.87776141107952,-29.47249760683917) " id="svg_810" fill="#C1D0E5" height="35.31" width="17.655" y="1940.809938" x="2867.800799"/>
   <path stroke="null" id="svg_811" fill="#C4CFE3" d="m173.977091,120.321155l0,5.505807c0,2.024067 -1.6078,3.670515 -3.584355,3.670515l0,-20.187865l-1.194785,0l0,20.187865l-8.363495,0l0,-25.963044c0,-0.396747 0.134468,-0.786633 0.398735,-1.076864c0.306902,-0.337079 0.733316,-0.512271 1.175836,-0.486907c0.77886,0.041858 1.412357,0.781435 1.412357,1.648596l1.194785,0c0,-1.533002 -1.117772,-2.793791 -2.544747,-2.870299c-0.740895,-0.040887 -1.453841,0.227029 -1.994015,0.752121c-0.532662,0.517399 -0.837805,1.245335 -0.837805,1.996832l0,29.67008l7.766137,0c1.442404,0 2.649303,-1.052609 2.926834,-2.44701l0.060095,0c2.639423,0 4.77914,-2.191151 4.77914,-4.894019l0,-5.505807l-1.194785,0l0,0l0.000068,0zm-6.571284,11.623331l-6.571352,0l0,-1.223505l8.260766,0c-0.246604,0.712065 -0.910622,1.223505 -1.689415,1.223505z"/>
   <path stroke="null" id="svg_812" fill="#D4DEED" d="m164.717524,108.086106l-0.597426,0c-0.329911,0 -0.597426,-0.273946 -0.597426,-0.611787l0,-3.670515c0,-0.337841 0.267515,-0.611787 0.597426,-0.611787l0.597426,0c0.329911,0 0.597426,0.273946 0.597426,0.611787l0,3.670515c-0.000068,0.337841 -0.267448,0.611787 -0.597426,0.611787z"/>
   <path stroke="null" id="svg_813" fill="#E1EAF6" d="m165.01617,136.226787l-14.337421,0c-0.9898,0 -1.792211,-0.82163 -1.792211,-1.835292l0,-25.693672c0,-1.013593 0.802343,-1.835292 1.792211,-1.835292l14.337488,0c0.9898,0 1.792211,0.82163 1.792211,1.835292l0,25.693672c-0.000068,1.013593 -0.802411,1.835292 -1.792279,1.835292z"/>
   <path stroke="null" id="svg_814" fill="#444455" d="m164.418811,108.697824l-13.142703,0c-0.329911,0 -0.597426,0.273946 -0.597426,0.611787l0,9.176321c0,0.337841 0.267515,0.611787 0.597426,0.611787l13.142703,0c0.329911,0 0.597426,-0.273946 0.597426,-0.611787l0,-9.176321c-0.000068,-0.33791 -0.267448,-0.611787 -0.597426,-0.611787z"/>
   <path stroke="null" id="svg_815" fill="#C4CFE3" d="m157.847459,122.156447c-2.969401,0 -5.376567,2.464959 -5.376567,5.505807c0,3.040709 2.407098,5.505807 5.376567,5.505807s5.376567,-2.465097 5.376567,-5.505807c0,-3.040848 -2.407165,-5.505807 -5.376567,-5.505807zm0,7.646923c-1.15479,0 -2.090857,-0.958637 -2.090857,-2.141116s0.936135,-2.141116 2.090857,-2.141116s2.090857,0.958637 2.090857,2.141116s-0.936067,2.141116 -2.090857,2.141116z"/>
   <g stroke="null" transform="matrix(0.06767403267734617,0,0,0.06930075752743077,-24.87776141107952,-29.47249760683917) " id="svg_816">
    <circle stroke="null" id="svg_817" fill="#E1EAF6" r="8.828" cy="2267.427949" cx="2638.284907"/>
    <circle stroke="null" id="svg_818" fill="#E1EAF6" r="8.828" cy="2267.427949" cx="2761.870907"/>
    <circle stroke="null" id="svg_819" fill="#E1EAF6" r="8.828" cy="2205.635949" cx="2700.077907"/>
    <circle stroke="null" id="svg_820" fill="#E1EAF6" r="8.828" cy="2329.220949" cx="2700.077907"/>
    <path stroke="null" id="svg_821" fill="#E1EAF6" d="m2876.629907,1949.640949c-19.474,0 -35.31,-15.84 -35.31,-35.31s15.837,-35.31 35.31,-35.31c19.474,0 35.31,15.84 35.31,35.31s-15.836,35.31 -35.31,35.31zm0,-52.965c-9.732,0 -17.655,7.918 -17.655,17.655s7.923,17.655 17.655,17.655c9.732,0 17.655,-7.918 17.655,-17.655s-7.922,-17.655 -17.655,-17.655z"/>
   </g>
   <path stroke="null" id="svg_822" fill="#929CB4" d="m169.197951,106.862601l0,2.44701c0,0.338118 0.267177,0.611787 0.597426,0.611787c0.330182,0 0.597426,-0.273599 0.597426,-0.611787l0,-2.44701l-1.194853,0z"/>
   <circle stroke="null" transform="matrix(0.06767403267734617,0,0,0.06930075752743077,-24.87776141107952,-29.47249760683917) " id="svg_823" fill="#6F7588" r="26.483" cy="2073.222938" cx="2947.248799"/>
   <rect stroke="null" transform="matrix(0.06767403267734617,0,0,0.06930075752743077,-24.87776141107952,-29.47249760683917) " id="svg_824" fill="#C1D0E5" height="35.31" width="17.655" y="2099.704938" x="2938.420799"/>
   <path stroke="null" id="svg_825" fill="#E1EAF6" d="m174.574518,116.65064c-1.317884,0 -2.38957,-1.097724 -2.38957,-2.44701s1.071754,-2.44701 2.38957,-2.44701s2.38957,1.097724 2.38957,2.44701s-1.071618,2.44701 -2.38957,2.44701zm0,-3.670515c-0.658604,0 -1.194785,0.548723 -1.194785,1.223505s0.536181,1.223505 1.194785,1.223505s1.194785,-0.548723 1.194785,-1.223505s-0.536114,-1.223505 -1.194785,-1.223505z"/>
   <path stroke="null" id="svg_826" fill="#929CB4" d="m173.977091,117.874145l0,2.44701c0,0.338118 0.267177,0.611787 0.597426,0.611787c0.330182,0 0.597426,-0.273599 0.597426,-0.611787l0,-2.44701l-1.194853,0l0,0z"/>
   <g stroke="null" transform="matrix(0.06767403267734617,0,0,0.06930075752743077,-24.87776141107952,-29.47249760683917) " id="svg_827"/>
   <g stroke="null" transform="matrix(0.06767403267734617,0,0,0.06930075752743077,-24.87776141107952,-29.47249760683917) " id="svg_828"/>
   <g stroke="null" transform="matrix(0.06767403267734617,0,0,0.06930075752743077,-24.87776141107952,-29.47249760683917) " id="svg_829"/>
   <g stroke="null" transform="matrix(0.06767403267734617,0,0,0.06930075752743077,-24.87776141107952,-29.47249760683917) " id="svg_830"/>
   <g stroke="null" transform="matrix(0.06767403267734617,0,0,0.06930075752743077,-24.87776141107952,-29.47249760683917) " id="svg_831"/>
   <g stroke="null" transform="matrix(0.06767403267734617,0,0,0.06930075752743077,-24.87776141107952,-29.47249760683917) " id="svg_832"/>
   <g stroke="null" transform="matrix(0.06767403267734617,0,0,0.06930075752743077,-24.87776141107952,-29.47249760683917) " id="svg_833"/>
   <g stroke="null" transform="matrix(0.06767403267734617,0,0,0.06930075752743077,-24.87776141107952,-29.47249760683917) " id="svg_834"/>
   <g stroke="null" transform="matrix(0.06767403267734617,0,0,0.06930075752743077,-24.87776141107952,-29.47249760683917) " id="svg_835"/>
   <g stroke="null" transform="matrix(0.06767403267734617,0,0,0.06930075752743077,-24.87776141107952,-29.47249760683917) " id="svg_836"/>
   <g stroke="null" transform="matrix(0.06767403267734617,0,0,0.06930075752743077,-24.87776141107952,-29.47249760683917) " id="svg_837"/>
   <g stroke="null" transform="matrix(0.06767403267734617,0,0,0.06930075752743077,-24.87776141107952,-29.47249760683917) " id="svg_838"/>
   <g stroke="null" transform="matrix(0.06767403267734617,0,0,0.06930075752743077,-24.87776141107952,-29.47249760683917) " id="svg_839"/>
   <g stroke="null" transform="matrix(0.06767403267734617,0,0,0.06930075752743077,-24.87776141107952,-29.47249760683917) " id="svg_840"/>
   <g stroke="null" transform="matrix(0.06767403267734617,0,0,0.06930075752743077,-24.87776141107952,-29.47249760683917) " id="svg_841"/>
  </g>
  <g stroke="null" id="svg_777">
   <path stroke="null" id="svg_749" fill="#FF6464" d="m138.250023,136.594821l-13.867849,0c-1.178282,0 -2.133487,-0.894662 -2.133487,-1.998262l0,-24.978562c0,-1.1036 0.955205,-1.998262 2.133487,-1.998262l13.867789,0c1.178282,0 2.133487,0.894662 2.133487,1.998262l0,24.978562c0.00006,1.1036 -0.955145,1.998262 -2.133427,1.998262z"/>
   <path stroke="null" id="svg_750" fill="#F0545A" d="m138.250023,128.601715l-13.867849,0c-0.589171,0 -1.066744,-0.447303 -1.066744,-0.999131l0,-4.995712c0,-0.551828 0.477572,-0.999131 1.066744,-0.999131l13.867789,0c0.589171,0 1.066744,0.447303 1.066744,0.999131l0,4.995712c0.00006,0.551828 -0.477512,0.999131 -1.066683,0.999131z"/>
   <g stroke="null" transform="matrix(0.06042161836160508,0,0,0.05659196647815535,-24.996092256493284,0) " id="svg_751">
    <path stroke="null" id="svg_752" fill="#5A5D6F" d="m2701.783109,2122.368741l-229.518,0c-9.751,0 -17.655,-7.904 -17.655,-17.655l0,-167.725c0,-9.751 7.904,-17.655 17.655,-17.655l229.517,0c9.751,0 17.655,7.904 17.655,17.655l0,167.724c0.001,9.752 -7.903,17.656 -17.654,17.656z"/>
    <circle stroke="null" id="svg_753" fill="#5A5D6F" r="17.655001" cy="2237.126741" cx="2631.162109"/>
    <circle stroke="null" id="svg_754" fill="#5A5D6F" r="17.655001" cy="2192.988741" cx="2675.300109"/>
   </g>
   <g stroke="null" transform="matrix(0.06042161836160508,0,0,0.05659196647815535,-24.996092256493284,0) " id="svg_755">
    <path stroke="null" id="svg_756" fill="#444455" d="m2675.300109,2104.712741l-176.552,0c-4.875,0 -8.828,-3.953 -8.828,-8.828l0,-150.068c0,-4.875 3.953,-8.828 8.828,-8.828l176.552,0c4.875,0 8.828,3.953 8.828,8.828l0,150.069c-0.001,4.875 -3.953,8.827 -8.828,8.827z"/>
    <path stroke="null" id="svg_757" fill="#444455" d="m2587.024109,2378.368741l0,0c-4.875,0 -8.828,-3.953 -8.828,-8.828l0,-17.655c0,-4.875 3.953,-8.828 8.828,-8.828l0,0c4.875,0 8.828,3.953 8.828,8.828l0,17.655c0,4.875 -3.953,8.828 -8.828,8.828z"/>
    <path stroke="null" id="svg_758" fill="#444455" d="m2613.507109,2378.368741l0,0c-4.875,0 -8.828,-3.953 -8.828,-8.828l0,-17.655c0,-4.875 3.953,-8.828 8.828,-8.828l0,0c4.875,0 8.828,3.953 8.828,8.828l0,17.655c-0.001,4.875 -3.953,8.828 -8.828,8.828z"/>
    <path stroke="null" id="svg_759" fill="#444455" d="m2560.541109,2378.368741l0,0c-4.875,0 -8.828,-3.953 -8.828,-8.828l0,-17.655c0,-4.875 3.953,-8.828 8.828,-8.828l0,0c4.875,0 8.828,3.953 8.828,8.828l0,17.655c0,4.875 -3.953,8.828 -8.828,8.828z"/>
   </g>
   <path stroke="null" id="svg_760" fill="#5A5D6F" d="m129.182612,124.10554l-0.800043,0c-0.147308,0 -0.266701,-0.111826 -0.266701,-0.249797l0,-0.749334c0,-0.275886 -0.238847,-0.499594 -0.533402,-0.499594l-1.066744,0c-0.294555,0 -0.533402,0.223708 -0.533402,0.499594l0,0.749334c0,0.137971 -0.119393,0.249797 -0.266701,0.249797l-0.800043,0c-0.294555,0 -0.533402,0.223708 -0.533402,0.499594l0,0.999131c0,0.275886 0.238847,0.499594 0.533402,0.499594l0.800043,0c0.147308,0 0.266701,0.111826 0.266701,0.249797l0,0.749334c0,0.275886 0.238847,0.499594 0.533402,0.499594l1.066744,0c0.294555,0 0.533402,-0.223708 0.533402,-0.499594l0,-0.749334c0,-0.137971 0.119393,-0.249797 0.266701,-0.249797l0.800043,0c0.294555,0 0.533402,-0.223708 0.533402,-0.499594l0,-0.999131c-0.00006,-0.275886 -0.238847,-0.499594 -0.533402,-0.499594z"/>
   <circle stroke="null" transform="matrix(0.06042161836160508,0,0,0.05659196647815535,-24.996092256493284,0) " id="svg_761" fill="#444455" r="13.241" cy="2210.644644" cx="2516.403238"/>
   <g stroke="null" transform="matrix(0.06042161836160508,0,0,0.05659196647815535,-24.996092256493284,0) " id="svg_762"/>
   <g stroke="null" transform="matrix(0.06042161836160508,0,0,0.05659196647815535,-24.996092256493284,0) " id="svg_763"/>
   <g stroke="null" transform="matrix(0.06042161836160508,0,0,0.05659196647815535,-24.996092256493284,0) " id="svg_764"/>
   <g stroke="null" transform="matrix(0.06042161836160508,0,0,0.05659196647815535,-24.996092256493284,0) " id="svg_765"/>
   <g stroke="null" transform="matrix(0.06042161836160508,0,0,0.05659196647815535,-24.996092256493284,0) " id="svg_766"/>
   <g stroke="null" transform="matrix(0.06042161836160508,0,0,0.05659196647815535,-24.996092256493284,0) " id="svg_767"/>
   <g stroke="null" transform="matrix(0.06042161836160508,0,0,0.05659196647815535,-24.996092256493284,0) " id="svg_768"/>
   <g stroke="null" transform="matrix(0.06042161836160508,0,0,0.05659196647815535,-24.996092256493284,0) " id="svg_769"/>
   <g stroke="null" transform="matrix(0.06042161836160508,0,0,0.05659196647815535,-24.996092256493284,0) " id="svg_770"/>
   <g stroke="null" transform="matrix(0.06042161836160508,0,0,0.05659196647815535,-24.996092256493284,0) " id="svg_771"/>
   <g stroke="null" transform="matrix(0.06042161836160508,0,0,0.05659196647815535,-24.996092256493284,0) " id="svg_772"/>
   <g stroke="null" transform="matrix(0.06042161836160508,0,0,0.05659196647815535,-24.996092256493284,0) " id="svg_773"/>
   <g stroke="null" transform="matrix(0.06042161836160508,0,0,0.05659196647815535,-24.996092256493284,0) " id="svg_774"/>
   <g stroke="null" transform="matrix(0.06042161836160508,0,0,0.05659196647815535,-24.996092256493284,0) " id="svg_775"/>
   <g stroke="null" transform="matrix(0.06042161836160508,0,0,0.05659196647815535,-24.996092256493284,0) " id="svg_776"/>
  </g>
  <g stroke="null" id="svg_1000">
   <path stroke="null" id="svg_966" fill="#444455" d="m184.116204,96.407039l0,0c-0.399921,0 -0.724205,0.425304 -0.724205,0.949806l0,6.648318l1.448328,0l0,-6.648318c0,-0.524502 -0.324202,-0.949806 -0.724123,-0.949806z"/>
   <polygon stroke="null" id="svg_967" fill="#5A5D6F" points="184.8402862548828,104.00516891479492 183.3920440673828,104.00516891479492 182.6679229736328,127.74925231933594 185.5645294189453,127.74925231933594 "/>
   <path stroke="null" id="svg_968" fill="#444455" d="m214.531327,96.407039l0,0c-0.399921,0 -0.724205,0.425304 -0.724205,0.949806l0,6.648318l1.448328,0l0,-6.648318c0.000082,-0.524502 -0.324202,-0.949806 -0.724123,-0.949806z"/>
   <g stroke="null" transform="matrix(0.08203497606380414,0,0,0.10759014325752118,-164.48498547437657,-119.38677671382908) " id="svg_969">
    <polygon stroke="null" id="svg_970" fill="#5A5D6F" points="4629.00732421875,2076.3234252929688 4611.3515625,2076.3234252929688 4602.5244140625,2297.0133666992188 4637.833984375,2297.0133666992188 "/>
    <path stroke="null" id="svg_971" fill="#5A5D6F" d="m4208.300308,2358.806456l-12.61,0c-4.452,0 -8.062,-3.609 -8.062,-8.062l0,-18.421l35.31,0l-6.99,20.97c-1.097,3.293 -4.178,5.513 -7.648,5.513z"/>
    <path stroke="null" id="svg_972" fill="#5A5D6F" d="m4661.300308,2358.806456l12.61,0c4.452,0 8.062,-3.609 8.062,-8.062l0,-18.421l-35.31,0l6.99,20.97c1.097,3.293 4.178,5.513 7.648,5.513z"/>
   </g>
   <path stroke="null" id="svg_973" fill="#D4DEED" d="m219.600514,132.498045l-40.553498,0c-0.399921,0 -0.724205,-0.425304 -0.724205,-0.949806l0,-5.69862c0,-2.622617 1.621175,-4.748814 3.62086,-4.748814l34.760188,0c1.999685,0 3.62086,2.126196 3.62086,4.748814l0,5.69862c0,0.524502 -0.324284,0.949806 -0.724205,0.949806z"/>
   <path stroke="null" id="svg_974" fill="#B6BFD5" d="m219.600514,132.498045l-40.553498,0c-0.399921,0 -0.724205,-0.425304 -0.724205,-0.949806l0,-1.899504l42.001908,0l0,1.899504c0,0.524502 -0.324284,0.949806 -0.724205,0.949806z"/>
   <path stroke="null" id="svg_975" fill="#6F7588" d="m216.703859,123.950115l-34.760188,0c-0.799923,0 -1.448328,0.850392 -1.448328,1.899504l0,6.648318l37.656843,0l0,-6.648318c0,-1.049111 -0.648404,-1.899504 -1.448328,-1.899504z"/>
   <circle stroke="null" transform="matrix(0.08203497606380414,0,0,0.10759014325752118,-164.48498547437657,-119.38677671382908) " id="svg_976" fill="#FFD75B" r="13.241" cy="2292.599464" cx="4236.179475"/>
   <g stroke="null" transform="matrix(0.08203497606380414,0,0,0.10759014325752118,-164.48498547437657,-119.38677671382908) " id="svg_977">
    <circle stroke="null" id="svg_978" fill="#B3E671" r="13.241" cy="2292.599456" cx="4324.455308"/>
    <circle stroke="null" id="svg_979" fill="#B3E671" r="13.241" cy="2292.599456" cx="4280.317308"/>
   </g>
   <circle stroke="null" transform="matrix(0.08203497606380414,0,0,0.10759014325752118,-164.48498547437657,-119.38677671382908) " id="svg_980" fill="#FFD75B" r="13.241" cy="2292.599464" cx="4368.593475"/>
   <circle stroke="null" transform="matrix(0.08203497606380414,0,0,0.10759014325752118,-164.48498547437657,-119.38677671382908) " id="svg_981" fill="#B3E671" r="13.241" cy="2292.599464" cx="4412.731475"/>
   <g stroke="null" transform="matrix(0.08203497606380414,0,0,0.10759014325752118,-164.48498547437657,-119.38677671382908) " id="svg_982">
    <path stroke="null" id="svg_983" fill="#5A5D6F" d="m4615.766308,2305.840456l8.828,0c7.313,0 13.241,-5.929 13.241,-13.241l0,0c0,-7.313 -5.929,-13.241 -13.241,-13.241l-8.828,0c-7.313,0 -13.241,5.929 -13.241,13.241l0,0c-0.001,7.312 5.928,13.241 13.241,13.241z"/>
    <path stroke="null" id="svg_984" fill="#5A5D6F" d="m4562.800308,2305.840456l8.828,0c7.313,0 13.241,-5.929 13.241,-13.241l0,0c0,-7.313 -5.929,-13.241 -13.241,-13.241l-8.828,0c-7.313,0 -13.241,5.929 -13.241,13.241l0,0c0,7.312 5.928,13.241 13.241,13.241z"/>
   </g>
   <g stroke="null" transform="matrix(0.08203497606380414,0,0,0.10759014325752118,-164.48498547437657,-119.38677671382908) " id="svg_985"/>
   <g stroke="null" transform="matrix(0.08203497606380414,0,0,0.10759014325752118,-164.48498547437657,-119.38677671382908) " id="svg_986"/>
   <g stroke="null" transform="matrix(0.08203497606380414,0,0,0.10759014325752118,-164.48498547437657,-119.38677671382908) " id="svg_987"/>
   <g stroke="null" transform="matrix(0.08203497606380414,0,0,0.10759014325752118,-164.48498547437657,-119.38677671382908) " id="svg_988"/>
   <g stroke="null" transform="matrix(0.08203497606380414,0,0,0.10759014325752118,-164.48498547437657,-119.38677671382908) " id="svg_989"/>
   <g stroke="null" transform="matrix(0.08203497606380414,0,0,0.10759014325752118,-164.48498547437657,-119.38677671382908) " id="svg_990"/>
   <g stroke="null" transform="matrix(0.08203497606380414,0,0,0.10759014325752118,-164.48498547437657,-119.38677671382908) " id="svg_991"/>
   <g stroke="null" transform="matrix(0.08203497606380414,0,0,0.10759014325752118,-164.48498547437657,-119.38677671382908) " id="svg_992"/>
   <g stroke="null" transform="matrix(0.08203497606380414,0,0,0.10759014325752118,-164.48498547437657,-119.38677671382908) " id="svg_993"/>
   <g stroke="null" transform="matrix(0.08203497606380414,0,0,0.10759014325752118,-164.48498547437657,-119.38677671382908) " id="svg_994"/>
   <g stroke="null" transform="matrix(0.08203497606380414,0,0,0.10759014325752118,-164.48498547437657,-119.38677671382908) " id="svg_995"/>
   <g stroke="null" transform="matrix(0.08203497606380414,0,0,0.10759014325752118,-164.48498547437657,-119.38677671382908) " id="svg_996"/>
   <g stroke="null" transform="matrix(0.08203497606380414,0,0,0.10759014325752118,-164.48498547437657,-119.38677671382908) " id="svg_997"/>
   <g stroke="null" transform="matrix(0.08203497606380414,0,0,0.10759014325752118,-164.48498547437657,-119.38677671382908) " id="svg_998"/>
   <g stroke="null" transform="matrix(0.08203497606380414,0,0,0.10759014325752118,-164.48498547437657,-119.38677671382908) " id="svg_999"/>
  </g>
  <g stroke="null" id="svg_685">
   <path stroke="null" id="svg_664" fill="#B6BFD5" d="m243.781122,133.912827l-16.884071,0c-0.451199,0 -0.816945,-0.375465 -0.816945,-0.838511l0,-30.74634c0,-0.463046 0.365808,-0.838511 0.816945,-0.838511l16.884009,0c0.451199,0 0.816945,0.375465 0.816945,0.838511l0,30.746277c0.000062,0.463109 -0.365747,0.838575 -0.816884,0.838575z"/>
   <path stroke="null" id="svg_665" fill="#929CB4" d="m236.428367,133.074315l-2.178562,0c-0.451199,0 -0.816945,-0.375465 -0.816945,-0.838511l0,0c0,-0.463109 0.365808,-0.838511 0.816945,-0.838511l2.178562,0c0.451199,0 0.816945,0.375465 0.816945,0.838511l0,0c0.000062,0.463046 -0.365747,0.838511 -0.816945,0.838511z"/>
   <path stroke="null" id="svg_666" fill="#5A5D6F" d="m236.973039,103.725536l-3.267905,0c-0.300779,0 -0.544671,-0.250331 -0.544671,-0.55905l0,0c0,-0.308719 0.243893,-0.55905 0.544671,-0.55905l3.267905,0c0.300779,0 0.544671,0.250331 0.544671,0.55905l0,0c-0.000062,0.308782 -0.243893,0.55905 -0.544671,0.55905z"/>
   <path stroke="null" id="svg_667" fill="#444455" d="m231.526572,103.725536l0,0c-0.300779,0 -0.544671,-0.250331 -0.544671,-0.55905l0,0c0,-0.308719 0.243893,-0.55905 0.544671,-0.55905l0,0c0.300779,0 0.544671,0.250331 0.544671,0.55905l0,0c-0.000062,0.308782 -0.243893,0.55905 -0.544671,0.55905z"/>
   <path stroke="null" id="svg_668" fill="#5A5D6F" d="m229.89262,103.725536l0,0c-0.300779,0 -0.544671,-0.250331 -0.544671,-0.55905l0,0c0,-0.308719 0.243893,-0.55905 0.544671,-0.55905l0,0c0.300779,0 0.544671,0.250331 0.544671,0.55905l0,0c0,0.308782 -0.243893,0.55905 -0.544671,0.55905z"/>
   <rect stroke="null" transform="matrix(0.06169815774560813,0,0,0.06332688035453068,-35.33312134251537,-15.708752745525999) " id="svg_669" fill="#444455" height="406.069" width="300.138" y="1903.652722" x="4236.969729"/>
   <g stroke="null" transform="matrix(0.06169815774560813,0,0,0.06332688035453068,-35.33312134251537,-15.708752745525999) " id="svg_670"/>
   <g stroke="null" transform="matrix(0.06169815774560813,0,0,0.06332688035453068,-35.33312134251537,-15.708752745525999) " id="svg_671"/>
   <g stroke="null" transform="matrix(0.06169815774560813,0,0,0.06332688035453068,-35.33312134251537,-15.708752745525999) " id="svg_672"/>
   <g stroke="null" transform="matrix(0.06169815774560813,0,0,0.06332688035453068,-35.33312134251537,-15.708752745525999) " id="svg_673"/>
   <g stroke="null" transform="matrix(0.06169815774560813,0,0,0.06332688035453068,-35.33312134251537,-15.708752745525999) " id="svg_674"/>
   <g stroke="null" transform="matrix(0.06169815774560813,0,0,0.06332688035453068,-35.33312134251537,-15.708752745525999) " id="svg_675"/>
   <g stroke="null" transform="matrix(0.06169815774560813,0,0,0.06332688035453068,-35.33312134251537,-15.708752745525999) " id="svg_676"/>
   <g stroke="null" transform="matrix(0.06169815774560813,0,0,0.06332688035453068,-35.33312134251537,-15.708752745525999) " id="svg_677"/>
   <g stroke="null" transform="matrix(0.06169815774560813,0,0,0.06332688035453068,-35.33312134251537,-15.708752745525999) " id="svg_678"/>
   <g stroke="null" transform="matrix(0.06169815774560813,0,0,0.06332688035453068,-35.33312134251537,-15.708752745525999) " id="svg_679"/>
   <g stroke="null" transform="matrix(0.06169815774560813,0,0,0.06332688035453068,-35.33312134251537,-15.708752745525999) " id="svg_680"/>
   <g stroke="null" transform="matrix(0.06169815774560813,0,0,0.06332688035453068,-35.33312134251537,-15.708752745525999) " id="svg_681"/>
   <g stroke="null" transform="matrix(0.06169815774560813,0,0,0.06332688035453068,-35.33312134251537,-15.708752745525999) " id="svg_682"/>
   <g stroke="null" transform="matrix(0.06169815774560813,0,0,0.06332688035453068,-35.33312134251537,-15.708752745525999) " id="svg_683"/>
   <g stroke="null" transform="matrix(0.06169815774560813,0,0,0.06332688035453068,-35.33312134251537,-15.708752745525999) " id="svg_684"/>
  </g>
  <g stroke="null" id="svg_659">
   <path stroke="null" id="svg_617" fill="#F94A46" d="m112.66141,114.665617c-10.374655,0.046101 -10.107319,-0.103938 -11.003493,0.135236l-0.026273,0c1.412736,-0.373141 1.690753,-1.451009 1.725927,-1.602898l0.220928,-2.837889c0.03321,-0.200157 0.208405,-0.377793 0.454686,-0.424581c2.223399,-0.422413 5.202766,-0.416387 7.305542,-0.057679c0.197049,0.033624 0.347813,0.170816 0.376112,0.342107l0.239467,2.957211c0,0 0.187718,1.167056 1.626666,1.594016c-0.293302,-0.068411 -0.60146,-0.105524 -0.919562,-0.105524z"/>
   <path stroke="null" id="svg_618" fill="#EA3939" d="m106.034122,110.03382l-0.220928,3.171484c-0.028176,0.135817 -0.212273,0.93301 -1.007037,1.460313c-1.826846,0.030716 -2.335674,-0.081628 -3.148301,0.135236l-0.026212,0c1.412736,-0.373141 1.690753,-1.451009 1.725927,-1.602898c0.059115,-0.747127 0.214728,-2.807913 0.228049,-2.865591c0.078697,-0.340045 0.455422,-0.400315 0.449284,-0.397248c0.758116,-0.143959 1.451594,-0.218767 2.21947,-0.268092c-0.123693,0.09421 -0.200302,0.232883 -0.220253,0.366797z"/>
   <g stroke="null" transform="matrix(0.06138594975742868,0,0,0.052867765198095946,-17.308452657962988,8.791503948122852) " id="svg_619">
    <path stroke="null" id="svg_620" fill="#CCCCCC" d="m2188.97632,2079.549336l-3.068,0c-6.748,0 -12.268,5.52 -12.268,12.268l0,18.403c0,6.748 5.521,12.268 12.268,12.268l3.068,0c6.748,0 12.268,-5.52 12.268,-12.268l0,-18.403c0,-6.746 -5.52,-12.268 -12.268,-12.268z"/>
    <path stroke="null" id="svg_621" fill="#CCCCCC" d="m2188.97632,2166.110336l-3.068,0c-6.748,0 -12.268,5.52 -12.268,12.268c0,14.56 0,34.103 0,47.37c0,6.748 5.521,12.268 12.268,12.268l3.068,0c6.748,0 12.268,-5.52 12.268,-12.268c0,-31.197 0,-19.888 0,-47.37c0,-6.746 -5.52,-12.268 -12.268,-12.268z"/>
   </g>
   <path stroke="null" id="svg_622" fill="#BABABA" d="m117.063949,125.376045l-0.188332,0c-0.414171,0 -0.753083,-0.29183 -0.753083,-0.648582c0,0.643242 0,1.150403 0,1.734486c0,0.356752 0.338912,0.648582 0.753083,0.648582l0.188332,0c0.414232,0 0.753083,-0.29183 0.753083,-0.648582c0,-0.577792 0,-1.156059 0,-1.734486c0,0.356699 -0.33885,0.648582 -0.753083,0.648582z"/>
   <path stroke="null" id="svg_623" fill="#F94A46" d="m102.698532,130.831628c-0.362116,0 -0.711586,-0.047422 -1.040615,-0.135236l-0.026273,0c1.412736,0.373141 1.690753,1.451009 1.725927,1.602898c0.058931,0.745224 0.214789,2.808071 0.228049,2.865591c0.078697,0.340045 0.455422,0.400262 0.449284,0.397248c2.221987,0.421832 5.206449,0.415171 7.303823,0.057362c0.197049,-0.033624 0.347813,-0.170816 0.376112,-0.342054l0.239528,-2.957317c0,0 0.187718,-1.167056 1.626666,-1.594016c-0.805015,0.187628 -0.437927,0.068887 -10.882501,0.105524z"/>
   <path stroke="null" id="svg_624" fill="#EA3939" d="m106.034122,135.463426l-0.220928,-3.171537c-0.028176,-0.135817 -0.212273,-0.93301 -1.007037,-1.460313c-1.826846,-0.030716 -2.335674,0.081628 -3.148301,-0.135236l-0.026212,0c1.412736,0.373141 1.690753,1.451009 1.725927,1.602898l0.220928,2.837889c0.03321,0.199734 0.207914,0.377687 0.454686,0.424581c0.752285,0.142954 1.443613,0.21845 2.221189,0.26841c-0.123693,-0.094157 -0.200302,-0.23283 -0.220253,-0.366691z"/>
   <path stroke="null" id="svg_625" fill="#EFEFEF" d="m112.66141,130.937311l-9.962878,0c-1.942313,0 -3.52251,-1.360975 -3.52251,-3.033711l0,-10.310007c0,-1.672789 1.580197,-3.033711 3.52251,-3.033711l9.962878,0c1.942313,0 3.52251,1.360922 3.52251,3.033711l0,10.31006c0.000061,1.672789 -1.580136,3.033658 -3.52251,3.033658z"/>
   <path stroke="null" id="svg_626" fill="#DDDDDD" d="m100.87052,127.903653l0,-10.31006c0,-1.672789 1.580197,-3.033711 3.52251,-3.033711l-1.694498,0c-1.942313,0 -3.52251,1.360975 -3.52251,3.033711l0,10.31006c0,1.672789 1.580197,3.033711 3.52251,3.033711l1.694559,0c-1.942374,-0.000053 -3.522571,-1.360922 -3.522571,-3.033711z"/>
   <path stroke="null" id="svg_627" fill="#CCCCCC" d="m102.698532,116.019244c-1.007957,0 -1.828012,0.70626 -1.828012,1.574349l0,10.31006c0,0.868089 0.820055,1.574349 1.828012,1.574349l9.962878,0c1.007957,0 1.828012,-0.70626 1.828012,-1.574349l0,-10.31006c0,-0.868089 -0.820055,-1.574349 -1.828012,-1.574349l-9.962878,0z"/>
   <path stroke="null" id="svg_628" fill="#BABABA" d="m102.705223,127.903653l0,-10.31006c0,-0.868089 0.819994,-1.574296 1.827951,-1.574296l-1.834642,0c-1.007957,0 -1.828012,0.706208 -1.828012,1.574296l0,10.31006c0,0.868089 0.820055,1.574349 1.828012,1.574349l1.834642,0c-1.007896,-0.000053 -1.827951,-0.706313 -1.827951,-1.574349z"/>
   <circle stroke="null" transform="matrix(0.06138594975742868,0,0,0.052867765198095946,-17.308452657962988,8.791503948122852) " id="svg_629" fill="#EFEFEF" r="13.74" cy="2065.813316" cx="1963.007508"/>
   <path stroke="null" id="svg_630" fill="#DDDDDD" d="m103.192628,118.006226c-0.156043,-0.232671 -0.144809,-0.508588 0.000368,-0.725822c-0.14352,-0.000159 -0.288882,0.030505 -0.42209,0.096748c-0.403428,0.200633 -0.541608,0.644828 -0.30871,0.992328c0.23296,0.347447 0.748724,0.466505 1.152214,0.265872c0.133208,-0.066243 0.236827,-0.159343 0.308342,-0.266454c-0.291154,-0.000423 -0.574081,-0.130002 -0.730124,-0.362673z"/>
   <circle stroke="null" transform="matrix(0.06138594975742868,0,0,0.052867765198095946,-17.308452657962988,8.791503948122852) " id="svg_631" fill="#898989" r="76" cy="2154.922316" cx="2035.748508"/>
   <path stroke="null" id="svg_632" fill="#777777" d="m105.212716,123.933548c-1.130668,-1.686587 -0.679727,-3.785438 0.955902,-5.023865c-2.803189,0.816173 -4.017342,3.628738 -2.550586,5.816776c1.288246,1.92169 4.141464,2.580106 6.372721,1.470623c0.272983,-0.135764 0.523684,-0.291883 0.751671,-0.464549c-2.063059,0.600684 -4.39904,-0.112397 -5.529708,-1.798984z"/>
   <circle stroke="null" transform="matrix(0.06138594975742868,0,0,0.052867765198095946,-17.308452657962988,8.791503948122852) " id="svg_633" fill="#EFEFEF" r="13.74" cy="2065.813316" cx="2108.499508"/>
   <path stroke="null" id="svg_634" fill="#DDDDDD" d="m112.123792,118.006226c-0.156043,-0.232671 -0.144809,-0.508588 0.000368,-0.725822c-0.643263,-0.000793 -1.057373,0.602058 -0.730861,1.089023c0.23296,0.347447 0.748724,0.466505 1.152214,0.265872c0.133208,-0.066243 0.236827,-0.159343 0.308342,-0.266454c-0.291092,-0.00037 -0.57402,-0.129949 -0.730063,-0.36262z"/>
   <circle stroke="null" transform="matrix(0.06138594975742868,0,0,0.052867765198095946,-17.308452657962988,8.791503948122852) " id="svg_635" fill="#EFEFEF" r="13.74" cy="2155.512316" cx="2035.168508"/>
   <path stroke="null" id="svg_636" fill="#DDDDDD" d="m107.62279,122.022854c-0.643263,-0.000793 -1.057373,0.602058 -0.730861,1.089023c0.23296,0.347447 0.748724,0.466505 1.152214,0.265872c0.133208,-0.066243 0.236827,-0.159343 0.308342,-0.266454c-0.648727,-0.00074 -1.053935,-0.603221 -0.729695,-1.088442z"/>
   <path stroke="null" id="svg_637" d="m104.320533,127.650416c-0.254261,0 -0.460333,0.177477 -0.460333,0.396455s0.206073,0.396455 0.460333,0.396455l6.70267,0c0.254261,0 0.460333,-0.177477 0.460333,-0.396455s-0.206073,-0.396455 -0.460333,-0.396455l-6.70267,0z"/>
   <path stroke="null" id="svg_638" d="m104.488362,118.006226c0,-0.619187 -0.584824,-1.122858 -1.303715,-1.122858s-1.303776,0.503724 -1.303776,1.122858s0.584885,1.122858 1.303776,1.122858c0.718829,0 1.303715,-0.503724 1.303715,-1.122858zm-1.303838,0.329948c-0.21129,0 -0.38311,-0.14803 -0.38311,-0.329948s0.171881,-0.329948 0.38311,-0.329948c0.211229,0 0.383048,0.14803 0.383048,0.329948s-0.171758,0.329948 -0.383048,0.329948z"/>
   <path stroke="null" id="svg_639" d="m113.419527,118.006226c0,-0.619187 -0.584885,-1.122858 -1.303776,-1.122858s-1.303776,0.503724 -1.303776,1.122858s0.584885,1.122858 1.303776,1.122858c0.718891,0 1.303776,-0.503724 1.303776,-1.122858zm-1.303838,0.329948c-0.21129,0 -0.38311,-0.14803 -0.38311,-0.329948s0.171881,-0.329948 0.38311,-0.329948c0.21129,0 0.38311,0.14803 0.38311,0.329948s-0.171758,0.329948 -0.38311,0.329948z"/>
   <path stroke="null" id="svg_640" d="m107.588721,120.302749c-0.254261,0 -0.460333,0.177477 -0.460333,0.396455l0,1.008241c-0.478749,0.166375 -0.817906,0.57002 -0.817906,1.041178c0,0.619187 0.584885,1.122858 1.303776,1.122858c0.168934,0 0.329888,-0.028707 0.478135,-0.079302l1.355218,1.024894c0.087414,0.066138 0.195698,0.098546 0.303492,0.098546c0.127867,0 0.255059,-0.045625 0.346094,-0.134919c0.167768,-0.164524 0.148922,-0.415012 -0.042234,-0.5595l-1.278362,-0.966793c0.089746,-0.152259 0.141433,-0.323762 0.141433,-0.505892c0,-0.487705 -0.363528,-0.902611 -0.86898,-1.057302l0,-0.992011c0,-0.218978 -0.206011,-0.396455 -0.460333,-0.396455zm0.025537,2.775822c-0.21129,0 -0.38311,-0.14803 -0.38311,-0.329948c0,-0.181971 0.171881,-0.329948 0.38311,-0.329948s0.38311,0.14803 0.38311,0.329948c0.000061,0.181918 -0.171758,0.329948 -0.38311,0.329948z"/>
   <path stroke="null" id="svg_641" d="m105.37987,118.759856c-0.227926,0.097118 -0.321171,0.334917 -0.208405,0.531162c0.112705,0.196245 0.38888,0.276551 0.616745,0.179486c2.764393,-1.178317 6.066835,0.550036 6.066835,3.247085c0,1.996763 -1.886267,3.621336 -4.204815,3.621336c-3.481934,0 -5.42529,-3.440898 -3.358609,-5.799911c0.153097,-0.174834 0.112766,-0.423418 -0.090237,-0.555323c-0.202942,-0.131852 -0.491579,-0.097118 -0.644798,0.077716c-2.515289,2.87109 -0.156718,7.070429 4.093583,7.070429c2.826209,0 5.125543,-1.980215 5.125543,-4.4143c-0.000061,-3.277326 -4.012431,-5.399966 -7.395841,-3.957681z"/>
   <path stroke="null" id="svg_642" d="m117.117294,121.399279c0.669107,0 1.213539,-0.468831 1.213539,-1.045143l0,-0.972925c0,-0.576259 -0.544371,-1.04509 -1.213539,-1.04509c-0.137873,0.004229 -0.265433,-0.014221 -0.481082,0.032038l0,-0.774671c0,-1.574561 -1.238646,-2.903815 -2.920559,-3.30524c-1.07628,-0.32244 -1.28757,-1.059047 -1.311818,-1.16013c-0.254629,-3.138759 -0.236888,-2.937862 -0.24137,-2.964084c-0.055738,-0.337614 -0.354074,-0.609037 -0.742218,-0.675174c-2.373795,-0.405179 -5.380724,-0.34898 -7.494488,0.059371c-0.476846,0.090668 -0.788318,0.455456 -0.814653,0.785192l-0.218718,2.808917c-0.01995,0.072746 -0.086984,0.272692 -0.266599,0.494102c-0.446153,0.549772 -1.10507,0.653974 -1.227903,0.713398c-1.563439,0.463386 -2.690362,1.74194 -2.690362,3.243702l0,8.216761c0,0.218925 0.206073,0.396455 0.460333,0.396455s0.460333,-0.17753 0.460333,-0.396455l0,-8.216761c0,-1.466499 1.389532,-2.637256 3.062177,-2.637256l9.962878,0c1.669023,0 3.062238,1.169065 3.062238,2.637256c0,2.05 0,8.19038 0,10.31006c0,1.411305 -1.287202,2.549442 -2.876177,2.631969c-0.159603,0.008459 -10.180983,0.006503 -10.289452,0.002273c-1.631823,-0.064393 -2.921542,-1.227431 -2.921542,-2.634242l0,-0.243086c0,-0.218978 -0.206073,-0.396455 -0.460333,-0.396455s-0.460333,0.177477 -0.460333,0.396455l0,0.243139c0,1.556004 1.228026,2.86723 2.780968,3.27759c0.796237,0.210255 1.272408,0.694577 1.403835,1.173664c0.235661,3.020864 0.214176,2.820654 0.23517,2.893823c0.089194,0.37166 0.437007,0.642608 0.806182,0.701661c0.37249,0.068199 0.50447,0.08776 0.641851,0.108432c0.881748,0.134548 2.162504,0.221463 3.262786,0.221463c1.509481,0 2.649418,-0.112503 3.581686,-0.271846c0.425773,-0.07264 0.722144,-0.392226 0.745839,-0.703406l0.237809,-2.934743c0.02701,-0.11171 0.242475,-0.840756 1.311388,-1.161188c1.682159,-0.401319 2.92105,-1.730679 2.92105,-3.305451l0,-0.428652c0.215894,0.046312 0.341736,0.027756 0.481082,0.032038c0.669107,0 1.213539,-0.468778 1.213539,-1.04509l0,-2.504346c0,-0.576259 -0.544371,-1.04509 -1.213539,-1.04509l-0.188271,0c-0.101164,0 -0.19889,0.011895 -0.292811,0.032038l0,-1.57731c0.215833,0.046259 0.342349,0.027756 0.481082,0.032038zm-0.481082,-2.018015c0,-0.136663 0.134128,-0.252126 0.292811,-0.252126l0.188271,0c0.158744,0 0.292811,0.115463 0.292811,0.252126l0,0.972925c0,0.136716 -0.134128,0.252179 -0.292811,0.252179l-0.188271,0c-0.158744,0 -0.292811,-0.115516 -0.292811,-0.252179l0,-0.972925zm-13.315042,-5.217837c0.305641,-0.349773 0.47482,-0.773085 0.487589,-0.939037c0.237748,-3.04328 0.216815,-2.79993 0.220253,-2.814627c0.010988,-0.047317 0.053344,-0.080993 0.096683,-0.087496c1.18788,-0.225534 2.570782,-0.312343 3.712684,-0.312343c1.927089,0 3.396485,0.239385 3.411094,0.26196c0.173906,2.141938 0.237441,2.940822 0.241738,2.96493c0.005463,0.030875 0.08901,0.468144 0.490228,0.926613l-8.660268,0zm8.165927,18.129097l-0.237625,2.932839c-0.010927,0.016865 -1.420409,0.26196 -3.411094,0.26196c-1.79468,0 -3.12344,-0.212687 -3.129701,-0.213321c-0.603915,-0.091197 -0.656093,-0.090933 -0.681323,-0.193337c-0.233389,-2.979627 -0.215403,-2.811032 -0.226453,-2.858824c-0.027501,-0.118847 -0.136891,-0.495582 -0.479731,-0.88802l8.66033,0c-0.309815,0.354003 -0.480652,0.782073 -0.494402,0.958704zm5.441864,-8.587152l0.188271,0c0.158744,0 0.292811,0.115516 0.292811,0.252126l0,2.504346c0,0.136663 -0.134128,0.252126 -0.292811,0.252126l-0.188271,0c-0.158744,0 -0.292811,-0.115516 -0.292811,-0.252126l0,-2.504346c0.000061,-0.13661 0.134128,-0.252126 0.292811,-0.252126z"/>
   <path stroke="null" id="svg_643" d="m114.48132,119.339128c0.254199,0 0.460333,-0.177477 0.460333,-0.396455l0,-1.34908c0,-1.086697 -1.026619,-1.970752 -2.288345,-1.970752l-9.962878,0c-1.261788,0 -2.288284,0.884108 -2.288284,1.970752l0,10.31006c0,1.086697 1.026557,1.970805 2.288284,1.970805l9.962878,0c1.261788,0 2.288345,-0.884161 2.288345,-1.970805l0,-7.110873c0,-0.218978 -0.206134,-0.396455 -0.460333,-0.396455c-0.254261,0 -0.460333,0.177477 -0.460333,0.396455l0,7.11082c0,0.64948 -0.613553,1.177894 -1.367679,1.177894l-9.962878,0c-0.754065,0 -1.367618,-0.528413 -1.367618,-1.177894l0,-10.310007c0,-0.649428 0.613553,-1.177841 1.367618,-1.177841l9.962878,0c0.754126,0 1.367679,0.528413 1.367679,1.177841l0,1.34908c0,0.218925 0.206134,0.396455 0.460333,0.396455z"/>
   <g stroke="null" transform="matrix(0.06138594975742868,0,0,0.052867765198095946,-17.308452657962988,8.791503948122852) " id="svg_644"/>
   <g stroke="null" transform="matrix(0.06138594975742868,0,0,0.052867765198095946,-17.308452657962988,8.791503948122852) " id="svg_645"/>
   <g stroke="null" transform="matrix(0.06138594975742868,0,0,0.052867765198095946,-17.308452657962988,8.791503948122852) " id="svg_646"/>
   <g stroke="null" transform="matrix(0.06138594975742868,0,0,0.052867765198095946,-17.308452657962988,8.791503948122852) " id="svg_647"/>
   <g stroke="null" transform="matrix(0.06138594975742868,0,0,0.052867765198095946,-17.308452657962988,8.791503948122852) " id="svg_648"/>
   <g stroke="null" transform="matrix(0.06138594975742868,0,0,0.052867765198095946,-17.308452657962988,8.791503948122852) " id="svg_649"/>
   <g stroke="null" transform="matrix(0.06138594975742868,0,0,0.052867765198095946,-17.308452657962988,8.791503948122852) " id="svg_650"/>
   <g stroke="null" transform="matrix(0.06138594975742868,0,0,0.052867765198095946,-17.308452657962988,8.791503948122852) " id="svg_651"/>
   <g stroke="null" transform="matrix(0.06138594975742868,0,0,0.052867765198095946,-17.308452657962988,8.791503948122852) " id="svg_652"/>
   <g stroke="null" transform="matrix(0.06138594975742868,0,0,0.052867765198095946,-17.308452657962988,8.791503948122852) " id="svg_653"/>
   <g stroke="null" transform="matrix(0.06138594975742868,0,0,0.052867765198095946,-17.308452657962988,8.791503948122852) " id="svg_654"/>
   <g stroke="null" transform="matrix(0.06138594975742868,0,0,0.052867765198095946,-17.308452657962988,8.791503948122852) " id="svg_655"/>
   <g stroke="null" transform="matrix(0.06138594975742868,0,0,0.052867765198095946,-17.308452657962988,8.791503948122852) " id="svg_656"/>
   <g stroke="null" transform="matrix(0.06138594975742868,0,0,0.052867765198095946,-17.308452657962988,8.791503948122852) " id="svg_657"/>
   <g stroke="null" transform="matrix(0.06138594975742868,0,0,0.052867765198095946,-17.308452657962988,8.791503948122852) " id="svg_658"/>
  </g>
  <g stroke="null" id="svg_1114">
   <path stroke="null" id="svg_1082" fill="#3EA69B" d="m305.683156,9.803426c-3.536959,7.610771 -5.314175,14.969099 -6.718431,23.14609c-4.84902,-0.315742 -7.069844,-0.552174 -11.866442,-1.266995c0.854196,-8.235888 1.124134,-15.755083 -0.247425,-23.889938c8.131049,-1.781059 11.419618,-1.429922 18.832298,2.010843z"/>
   <path stroke="null" id="svg_1083" fill="#44C4A1" d="m296.672396,31.830466c-2.8366,-0.264991 -4.216735,-0.412469 -7.043686,-0.751901c0.114493,-0.920821 -0.500532,-1.740046 -1.375418,-1.839301c0.580506,-6.496591 0.754497,-12.403179 0.27444,-18.887129c1.285582,-0.320143 2.303585,-1.191805 2.242372,-2.084535c4.499859,-0.763605 6.81545,-0.516405 10.977941,1.172048c-0.301027,0.854058 0.451326,1.914772 1.612767,2.496161c-2.223825,6.195175 -3.656812,11.967769 -4.854809,18.398066c-0.875637,-0.087737 -1.694777,0.578392 -1.833605,1.496592z"/>
   <g stroke="null" transform="matrix(0.10720331013623247,0,0,0.09363645778221294,-205.9074417081302,-55.598040571635174) " id="svg_1084">
    <path stroke="null" id="svg_1085" fill="#3EA69B" d="m4674.677098,767.98456c25.378,3.102 41.537,26.073 37.685,45.426c-3.852,19.353 -24.34,31.222 -46.568,28.505c-22.226,-2.717 -39.31,-19.179 -38.47,-38.9c0.842,-19.721 21.979,-38.132 47.353,-35.031z"/>
    <path stroke="null" id="svg_1086" fill="#3EA69B" d="m4683.819098,691.88856c5.614,0.686 9.552,5.288 8.854,9.879c-0.698,4.591 -5.536,7.501 -10.863,6.85c-5.325,-0.651 -9.334,-4.643 -8.924,-9.268c0.408,-4.627 5.321,-8.147 10.933,-7.461z"/>
    <ellipse stroke="null" id="svg_1087" fill="#3EA69B" ry="8.422" rx="6.83" cy="101.226983" cx="-4071.398333" transform="matrix(-0.9928,-0.1194,0.1194,-0.9928,603.4669,524.0775) "/>
   </g>
   <path stroke="null" id="svg_1088" fill="#44C4A1" d="m298.364922,20.548116c-0.25375,-0.054403 -0.380679,-0.080527 -0.635287,-0.130529c-0.229629,0.742724 -0.669806,1.366437 -1.309381,1.895576c-0.253536,-0.291022 -0.381322,-0.436252 -0.64054,-0.724933c0.492278,-0.416214 0.827717,-0.859115 0.998063,-1.344526c-0.679669,-0.114611 -1.021004,-0.163677 -1.706033,-0.243923c-0.251177,0.622308 -0.521544,1.069328 -0.814209,1.342185c-0.292772,0.272763 -0.683636,0.386438 -1.179236,0.350107c-0.495815,-0.036237 -0.882926,-0.22866 -1.170553,-0.582231c-0.287198,-0.353478 -0.42742,-0.79694 -0.416056,-1.33975c-0.178601,-0.002435 -0.267901,-0.003184 -0.446931,-0.003558c0.01458,-0.213304 0.021548,-0.319956 0.035055,-0.533166c0.184497,-0.000843 0.276477,-0.000749 0.460545,0.000655c0.093267,-0.614162 0.359131,-1.196393 0.819677,-1.74323c0.327935,0.222948 0.489383,0.338028 0.807241,0.573711c-0.325791,0.361062 -0.537517,0.75883 -0.644077,1.190868c0.676989,0.024345 1.015001,0.044852 1.688452,0.10403c0.001286,-0.0103 0.001822,-0.01545 0.003109,-0.025656c0.243673,-0.638788 0.528298,-1.098449 0.85291,-1.373928c0.325362,-0.27604 0.763288,-0.379977 1.30177,-0.296078c0.539018,0.083992 0.944568,0.342429 1.208503,0.753493c0.264899,0.411158 0.348732,0.901438 0.26565,1.471591c0.253107,0.051406 0.379714,0.07828 0.631964,0.134275c-0.044811,0.209746 -0.066788,0.314806 -0.110634,0.52502zm-5.742667,-0.144668c0.11728,0.150848 0.273047,0.231938 0.4688,0.244672c0.195432,0.012735 0.356344,-0.033054 0.483487,-0.137365c0.127036,-0.104217 0.263184,-0.311341 0.408981,-0.620529c-0.613632,-0.051687 -0.921412,-0.070508 -1.537831,-0.094854c-0.000107,0.255066 0.058962,0.457227 0.176564,0.608075zm4.142443,-1.374302c-0.109133,-0.180157 -0.270045,-0.288307 -0.481021,-0.320705c-0.210655,-0.032398 -0.38829,0.005993 -0.531085,0.113487c-0.142795,0.108244 -0.293523,0.325574 -0.450683,0.652084c0.641505,0.078655 0.961399,0.126316 1.597973,0.2369c0.018975,-0.273606 -0.025729,-0.500861 -0.135183,-0.681767z"/>
   <path stroke="null" id="svg_1089" fill="#3EA69B" d="m311.283028,16.40283c-5.840758,6.150792 -9.946645,12.614704 -13.973844,19.977526c-4.445614,-1.827971 -6.451281,-2.752912 -10.7154,-4.945316c3.530419,-7.592231 6.275146,-14.684163 7.683583,-22.880537c8.220243,0.85977 11.189774,2.23042 17.005661,7.848327z"/>
   <path stroke="null" id="svg_1090" fill="#44C4A1" d="m295.528966,34.590494c-2.573951,-1.146017 -3.820297,-1.721225 -6.36048,-2.935316c0.412518,-0.842822 0.106882,-1.81842 -0.68117,-2.188565c2.697342,-6.018109 4.817717,-11.601089 6.51571,-17.941213c1.31249,0.099161 2.556477,-0.412375 2.794897,-1.283662c4.475631,0.687853 6.566632,1.652871 9.913197,4.574984c-0.565497,0.720345 -0.210976,1.969737 0.686316,2.890277c-4.139441,5.213023 -7.396921,10.271826 -10.651828,16.032341c-0.792661,-0.35947 -1.782148,0.018446 -2.216643,0.851155z"/>
   <g stroke="null" transform="matrix(0.10720331013623247,0,0,0.09363645778221294,-205.9074417081302,-55.598040571635174) " id="svg_1091">
    <path stroke="null" id="svg_1092" fill="#3EA69B" d="m4712.799098,800.16456c22.917,12.109 31.432,39.859 22.217,56.943c-9.216,17.084 -31.876,21.028 -51.948,10.422c-20.07,-10.605 -31.338,-32.475 -24.841,-50.996c6.496,-18.521 31.659,-28.476 54.572,-16.369z"/>
    <path stroke="null" id="svg_1093" fill="#3EA69B" d="m4743.400098,730.82656c5.07,2.679 7.433,8.491 5.45,12.621c-1.983,4.13 -7.366,5.164 -12.176,2.622c-4.808,-2.54 -7.415,-7.796 -5.692,-12.063c1.722,-4.269 7.351,-5.858 12.418,-3.18z"/>
    <path stroke="null" id="svg_1094" fill="#3EA69B" d="m4659.192098,921.62356c3.397,1.795 4.629,6.661 2.757,10.859c-1.87,4.199 -6.118,6.162 -9.486,4.382c-3.367,-1.779 -4.601,-6.638 -2.759,-10.852c1.841,-4.214 6.091,-6.184 9.488,-4.389z"/>
   </g>
   <path stroke="null" id="svg_1095" fill="#44C4A1" d="m300.855577,24.354438c-0.220088,-0.131746 -0.330508,-0.196637 -0.552955,-0.324544c-0.46151,0.636634 -1.08136,1.093393 -1.856761,1.397056c-0.141401,-0.357598 -0.213335,-0.536443 -0.360846,-0.893666c0.59991,-0.242238 1.06142,-0.559384 1.382065,-0.969137c-0.599803,-0.32342 -0.903938,-0.477733 -1.520143,-0.769973c-0.441892,0.514907 -0.84369,0.856493 -1.208825,1.024757c-0.365134,0.168265 -0.769505,0.153564 -1.222654,-0.03708c-0.453256,-0.190737 -0.752674,-0.496273 -0.905546,-0.924285c-0.152336,-0.427825 -0.137006,-0.895258 0.053494,-1.409791c-0.166808,-0.058616 -0.25032,-0.087363 -0.4182,-0.144107c0.084369,-0.199071 0.126178,-0.298607 0.209582,-0.497865c0.173455,0.057212 0.259754,0.086333 0.431922,0.145605c0.29095,-0.556856 0.733378,-1.028971 1.346795,-1.405858c0.23381,0.316023 0.347232,0.476703 0.567427,0.801715c-0.425383,0.24205 -0.755891,0.555077 -0.99892,0.93393c0.627247,0.236338 0.9376,0.362373 1.549945,0.630829c0.00461,-0.009364 0.006861,-0.014139 0.011471,-0.023503c0.440284,-0.532979 0.859771,-0.882149 1.255565,-1.042829c0.396759,-0.161055 0.842082,-0.122383 1.319673,0.127252c0.477912,0.249822 0.772829,0.624274 0.88432,1.099667c0.112242,0.47586 0.028516,0.970261 -0.238313,1.488258c0.220517,0.12875 0.330293,0.194296 0.548559,0.327166c-0.111491,0.186243 -0.166916,0.279598 -0.277657,0.466403zm-5.340976,-1.946047c0.060141,0.180906 0.179351,0.307315 0.358809,0.3811c0.179244,0.073692 0.345302,0.080621 0.499246,0.021162c0.153837,-0.059459 0.350126,-0.214334 0.589404,-0.4635c-0.558636,-0.242518 -0.841224,-0.357317 -1.411653,-0.574741c-0.084583,0.243361 -0.096161,0.45498 -0.035806,0.635979zm4.342592,-0.007585c-0.042774,-0.206281 -0.15791,-0.360126 -0.345195,-0.457601c-0.186963,-0.097288 -0.366421,-0.116484 -0.535909,-0.058804c-0.169917,0.058336 -0.383359,0.218267 -0.639039,0.480449c0.575896,0.27707 0.860307,0.423237 1.421087,0.729241c0.10849,-0.255159 0.14183,-0.48616 0.099056,-0.693284z"/>
   <path stroke="null" id="svg_1096" fill="#FCD462" d="m302.891367,29.237392l0,0c0,-1.75765 -1.595721,-3.182422 -3.56376,-3.182422l-0.242065,0c-3.404134,-0.277164 -6.098904,-0.17716 -7.986432,0l-0.473946,0l0,0.047661c-1.72458,0.18643 -2.65221,0.42305 -2.65221,0.42305l-0.189321,-4.798681l-2.498909,0.461628c-1.424625,0.278381 -2.718033,0.929997 -3.707198,1.86786l-5.453861,5.171073c-1.357087,1.286752 -3.268736,2.018802 -5.27183,2.018802l-0.689853,0l-2.69477,17.090526l6.826707,0.052249c9.701149,3.347503 21.37827,2.169931 21.37827,2.169931l1.003209,0c1.968253,0 3.56376,-1.424866 3.56376,-3.182329l0,0c0,-1.280479 -0.848943,-2.381456 -2.069774,-2.886344l0.24646,0c1.968253,0 3.56376,-1.424866 3.56376,-3.182329l0,0c0,-1.263156 -0.826323,-2.351211 -2.020568,-2.865182c1.666368,-0.266583 2.932332,-1.564759 2.932332,-3.129518l0,0c0,-1.426551 -1.051236,-2.633806 -2.499874,-3.037941c1.448531,-0.404322 2.499874,-1.611483 2.499874,-3.038035z"/>
   <rect stroke="null" transform="matrix(0.10720331013623247,0,0,0.09363645778221294,-205.9074417081302,-55.598040571635174) " id="svg_1097" fill="#27A2DB" height="258.97" width="106.691" y="898.276559" x="4347.522996"/>
   <circle stroke="null" transform="matrix(0.10720331013623247,0,0,0.09363645778221294,-205.9074417081302,-55.598040571635174) " id="svg_1098" fill="#1C75A1" r="18.714001" cy="1116.388559" cx="4400.867996"/>
   <g stroke="null" transform="matrix(0.10720331013623247,0,0,0.09363645778221294,-205.9074417081302,-55.598040571635174) " id="svg_1099"/>
   <g stroke="null" transform="matrix(0.10720331013623247,0,0,0.09363645778221294,-205.9074417081302,-55.598040571635174) " id="svg_1100"/>
   <g stroke="null" transform="matrix(0.10720331013623247,0,0,0.09363645778221294,-205.9074417081302,-55.598040571635174) " id="svg_1101"/>
   <g stroke="null" transform="matrix(0.10720331013623247,0,0,0.09363645778221294,-205.9074417081302,-55.598040571635174) " id="svg_1102"/>
   <g stroke="null" transform="matrix(0.10720331013623247,0,0,0.09363645778221294,-205.9074417081302,-55.598040571635174) " id="svg_1103"/>
   <g stroke="null" transform="matrix(0.10720331013623247,0,0,0.09363645778221294,-205.9074417081302,-55.598040571635174) " id="svg_1104"/>
   <g stroke="null" transform="matrix(0.10720331013623247,0,0,0.09363645778221294,-205.9074417081302,-55.598040571635174) " id="svg_1105"/>
   <g stroke="null" transform="matrix(0.10720331013623247,0,0,0.09363645778221294,-205.9074417081302,-55.598040571635174) " id="svg_1106"/>
   <g stroke="null" transform="matrix(0.10720331013623247,0,0,0.09363645778221294,-205.9074417081302,-55.598040571635174) " id="svg_1107"/>
   <g stroke="null" transform="matrix(0.10720331013623247,0,0,0.09363645778221294,-205.9074417081302,-55.598040571635174) " id="svg_1108"/>
   <g stroke="null" transform="matrix(0.10720331013623247,0,0,0.09363645778221294,-205.9074417081302,-55.598040571635174) " id="svg_1109"/>
   <g stroke="null" transform="matrix(0.10720331013623247,0,0,0.09363645778221294,-205.9074417081302,-55.598040571635174) " id="svg_1110"/>
   <g stroke="null" transform="matrix(0.10720331013623247,0,0,0.09363645778221294,-205.9074417081302,-55.598040571635174) " id="svg_1111"/>
   <g stroke="null" transform="matrix(0.10720331013623247,0,0,0.09363645778221294,-205.9074417081302,-55.598040571635174) " id="svg_1112"/>
   <g stroke="null" transform="matrix(0.10720331013623247,0,0,0.09363645778221294,-205.9074417081302,-55.598040571635174) " id="svg_1113"/>
  </g>
  <g stroke="null" id="svg_1145">
   <path stroke="null" id="svg_1119" fill="#FF7058" d="m407.952915,74.125906l-22.121222,0l0,40.026886l36.24388,0l0,-18.016036l-4.227026,-14.584778c-1.274196,-4.39816 -5.309361,-7.426072 -9.895631,-7.426072"/>
   <path stroke="null" id="svg_1120" fill="#84DBFF" d="m416.783996,95.951898l-3.767144,-13.000639c-0.649443,-2.234798 -2.731676,-3.798885 -5.063937,-3.798885l-17.086368,0l0,16.799524l25.917449,0z"/>
   <polygon stroke="null" id="svg_1121" fill="#CDD6E0" points="416.7886091426626,95.94521689627345 390.8577502179505,95.94521689627345 390.8577502179505,79.14569584134733 "/>
   <path stroke="null" id="svg_1122" fill="#F2F2F2" d="m416.783996,95.951898l-3.767144,-13.000639c-0.649443,-2.234798 -2.731676,-3.798885 -5.063937,-3.798885l-17.086368,0l25.917449,16.799524z"/>
   <path stroke="null" id="svg_1123" fill="#FFD15C" d="m323.333508,54.031104l55.8029,0c3.695797,0 6.695285,2.992194 6.695285,6.684133l0,53.435257l-69.19347,0l0,-53.435257c0,-3.69173 2.997186,-6.684133 6.695285,-6.684133"/>
   <polygon stroke="null" id="svg_1124" fill="#F2F2F2" points="361.9877194440378,54.042373281758955 361.9877194440378,71.70395602295866 359.39880529678703,69.11949970962996 356.68507658605813,71.82887153275169 353.9733746341408,69.11949970962996 351.261774020164,71.82887153275169 348.5457145368018,69.11949970962996 345.7985780849958,71.82887153275169 343.0890042298306,69.11949970962996 340.4690806727631,71.73528271100713 340.4690806727631,54.042373281758955 "/>
   <path stroke="null" id="svg_1125" fill="#334A5E" d="m423.771781,114.148197l0,7.55307l-107.124561,0l0,-7.55307l11.181126,0c2.611161,-4.678893 7.632625,-7.842786 13.39057,-7.842786c5.735558,0 10.757022,3.163893 13.39057,7.842786l35.976068,0c2.611161,-4.678893 7.608145,-7.842786 13.366091,-7.842786c5.757945,0 10.757022,3.163893 13.39057,7.842786l6.429566,0z"/>
   <path stroke="null" id="svg_1126" fill="#40596B" d="m414.643806,121.654478c0,5.895405 -4.787129,10.67456 -10.69237,10.67456s-10.687977,-4.779155 -10.687977,-10.67456s4.784827,-10.67456 10.687977,-10.67456c5.907543,0 10.69237,4.779155 10.69237,10.67456"/>
   <path stroke="null" id="svg_1127" fill="#ACB3BA" d="m408.249809,121.654478c0,2.368481 -1.923848,4.286827 -4.293979,4.286827c-2.372432,0 -4.298373,-1.918346 -4.298373,-4.286827c0,-2.368481 1.923848,-4.286827 4.298373,-4.286827c2.370131,-0.002089 4.293979,1.918555 4.293979,4.286827"/>
   <path stroke="null" id="svg_1128" fill="#40596B" d="m351.90229,121.654478c0,5.895405 -4.78943,10.67456 -10.69237,10.67456c-5.905241,0 -10.69237,-4.779155 -10.69237,-10.67456s4.787129,-10.67456 10.69237,-10.67456c5.90294,0 10.69237,4.779155 10.69237,10.67456"/>
   <path stroke="null" id="svg_1129" fill="#ACB3BA" d="m345.503899,121.654478c0,2.368481 -1.921547,4.286827 -4.293979,4.286827s-4.296072,-1.918346 -4.296072,-4.286827c0,-2.368481 1.923848,-4.286827 4.296072,-4.286827s4.293979,1.918555 4.293979,4.286827"/>
   <g stroke="null" transform="matrix(0.20922765898106876,0,0,0.20887915681781713,-980.3898220014514,-242.32655837743744) " id="svg_1130"/>
   <g stroke="null" transform="matrix(0.20922765898106876,0,0,0.20887915681781713,-980.3898220014514,-242.32655837743744) " id="svg_1131"/>
   <g stroke="null" transform="matrix(0.20922765898106876,0,0,0.20887915681781713,-980.3898220014514,-242.32655837743744) " id="svg_1132"/>
   <g stroke="null" transform="matrix(0.20922765898106876,0,0,0.20887915681781713,-980.3898220014514,-242.32655837743744) " id="svg_1133"/>
   <g stroke="null" transform="matrix(0.20922765898106876,0,0,0.20887915681781713,-980.3898220014514,-242.32655837743744) " id="svg_1134"/>
   <g stroke="null" transform="matrix(0.20922765898106876,0,0,0.20887915681781713,-980.3898220014514,-242.32655837743744) " id="svg_1135"/>
   <g stroke="null" transform="matrix(0.20922765898106876,0,0,0.20887915681781713,-980.3898220014514,-242.32655837743744) " id="svg_1136"/>
   <g stroke="null" transform="matrix(0.20922765898106876,0,0,0.20887915681781713,-980.3898220014514,-242.32655837743744) " id="svg_1137"/>
   <g stroke="null" transform="matrix(0.20922765898106876,0,0,0.20887915681781713,-980.3898220014514,-242.32655837743744) " id="svg_1138"/>
   <g stroke="null" transform="matrix(0.20922765898106876,0,0,0.20887915681781713,-980.3898220014514,-242.32655837743744) " id="svg_1139"/>
   <g stroke="null" transform="matrix(0.20922765898106876,0,0,0.20887915681781713,-980.3898220014514,-242.32655837743744) " id="svg_1140"/>
   <g stroke="null" transform="matrix(0.20922765898106876,0,0,0.20887915681781713,-980.3898220014514,-242.32655837743744) " id="svg_1141"/>
   <g stroke="null" transform="matrix(0.20922765898106876,0,0,0.20887915681781713,-980.3898220014514,-242.32655837743744) " id="svg_1142"/>
   <g stroke="null" transform="matrix(0.20922765898106876,0,0,0.20887915681781713,-980.3898220014514,-242.32655837743744) " id="svg_1143"/>
   <g stroke="null" transform="matrix(0.20922765898106876,0,0,0.20887915681781713,-980.3898220014514,-242.32655837743744) " id="svg_1144"/>
  </g>
  <g stroke="null" id="svg_1189">
   <circle stroke="null" transform="matrix(0.09550478634265616,0,0,0.09813556143949959,-185.5474466425871,-91.98057329778209) " id="svg_1158" fill="#3BB54A" r="128" cy="1938.265267" cx="4916.460644"/>
   <g stroke="null" transform="matrix(0.09550478634265616,0,0,0.09813556143949959,-185.5474466425871,-91.98057329778209) " id="svg_1159">
    <path stroke="null" id="svg_1160" fill="#8FCC92" d="m4846.660541,1866.165243c-1.2,0 -3.5,-1.2 -4.7,-2.3c-2.3,-2.3 -2.3,-5.8 0,-8.1c10.5,-9.3 23.3,-17.5 37.2,-22.1c3.5,-1.2 5.8,0 7,3.5s0,5.8 -3.5,7c-11.6,4.5 -23.2,10.4 -32.5,19.7c-1.2,2.3 -2.4,2.3 -3.5,2.3z"/>
    <path stroke="null" id="svg_1161" fill="#8FCC92" d="m4811.760541,1944.165243c-3.5,0 -5.8,-2.3 -5.8,-5.8c0,-17.5 3.5,-33.7 11.6,-48.9c1.2,-2.3 4.7,-3.5 8.1,-2.3c2.3,1.2 3.5,4.7 2.3,8.1c-7,14 -10.5,29.1 -10.5,44.2c0.1,2.3 -2.2,4.7 -5.7,4.7z"/>
   </g>
   <path stroke="null" id="svg_1162" fill="#0E9347" d="m290.778917,87.839621c1.337067,1.943084 2.110656,4.337592 2.110656,6.967625c0,6.967625 -5.443773,12.561352 -12.224613,12.561352c-2.559528,0 -4.889845,-0.794898 -6.78084,-2.168796c2.225262,3.307168 5.892645,5.593727 10.113957,5.593727c6.78084,0 12.224613,-5.593727 12.224613,-12.561352c0,-4.337592 -2.110656,-8.213946 -5.443773,-10.392556z"/>
   <path stroke="null" fill="#C97629" d="m287.331194,133.639487l-22.223964,0c-0.668534,0 -1.107856,-0.461237 -1.107856,-1.138373l0,-27.409262l23.34137,0l0,28.547635l-0.00955,0z" id="svg_1156"/>
   <g stroke="null" transform="matrix(0.09550478634265616,0,0,0.09813556143949959,-185.5474466425871,-91.98057329778209) " id="svg_1163">
    <path stroke="null" fill="#C97629" d="m4951.360541,2299.065243l-232.7,0c-7,0 -11.6,-4.7 -11.6,-11.6l0,-279.3l244.4,0l0,290.9l-0.1,0z" id="svg_1155"/>
   </g>
   <path stroke="null" fill="#B06328" d="m287.331194,133.639487l15.55773,0c0.668534,0 1.107856,-0.461237 1.107856,-1.138373l0,-27.409262l-16.665585,0l0,28.547635z" id="svg_1154"/>
   <g stroke="null" transform="matrix(0.09550478634265616,0,0,0.09813556143949959,-185.5474466425871,-91.98057329778209) " id="svg_1164">
    <path stroke="null" fill="#B06328" d="m4951.360541,2299.065243l162.9,0c7,0 11.6,-4.7 11.6,-11.6l0,-279.3l-174.5,0l0,290.9z" id="svg_1153"/>
   </g>
   <path stroke="null" id="svg_1165" fill="#B06328" d="m265.10723,132.491301l0,-13.699724c0,-1.256135 1.0028,-2.286559 2.225262,-2.286559l16.894797,0c0.553928,0 1.0028,-0.343474 1.107856,-0.912661l1.99605,-10.510319l-22.223964,0l-1.117406,0l0,11.422979l0,15.986283c0,0.686949 0.448872,1.138373 1.107856,1.138373l22.223964,0c-0.668534,-0.686949 -1.671334,-1.138373 -2.664584,-1.138373l-19.54983,0z"/>
   <path stroke="null" id="svg_1166" fill="#A35425" d="m302.888923,105.091853l-15.55773,0l1.99605,10.510319c0.114606,0.569186 0.553928,0.912661 1.107856,0.912661l10.228563,0c1.222461,0 2.225262,1.030423 2.225262,2.286559l0,13.699724l-12.893146,0c-1.0028,0 -1.99605,0.461237 -2.664584,1.138373l15.55773,0c0.668534,0 1.107856,-0.461237 1.107856,-1.138373l0,-15.996097l0,-11.413166l-1.107856,0z"/>
   <path stroke="null" id="svg_1167" fill="#C97629" d="m294.112034,114.21846l13.227413,0c0.668534,0 1.107856,-0.569186 1.107856,-1.138373c0,-0.225712 0,-0.461237 -0.219661,-0.569186l-4.221312,-7.419048l-16.675136,0l4.889845,8.105997c0.448872,0.569186 1.107856,1.02061 1.890995,1.02061z"/>
   <path stroke="null" id="svg_1168" fill="#DA8C36" d="m280.550354,114.21846l-19.893647,0c-0.668534,0 -1.107856,-0.569186 -1.107856,-1.138373c0,-0.225712 0,-0.461237 0.219661,-0.569186l4.221312,-7.419048l23.34137,0l-4.889845,8.105997c-0.439322,0.569186 -1.107856,1.02061 -1.890995,1.02061z"/>
   <g stroke="null" transform="matrix(0.09550478634265616,0,0,0.09813556143949959,-185.5474466425871,-91.98057329778209) " id="svg_1169">
    <path stroke="null" id="svg_1170" fill="#FFCB5B" d="m4736.060541,2217.565243l69.8,0c3.5,0 5.8,2.3 5.8,5.8l0,0c0,3.5 -2.3,5.8 -5.8,5.8l-69.8,0c-3.5,0 -5.8,-2.3 -5.8,-5.8l0,0c0,-3.5 2.3,-5.8 5.8,-5.8z"/>
    <path stroke="null" id="svg_1171" fill="#FFCB5B" d="m4736.060541,2240.865243l46.5,0c3.5,0 5.8,2.3 5.8,5.8l0,0c0,3.5 -2.3,5.8 -5.8,5.8l-46.5,0c-3.5,0 -5.8,-2.3 -5.8,-5.8l0,0c0,-3.5 2.3,-5.8 5.8,-5.8z"/>
   </g>
   <path stroke="null" id="svg_1172" fill="#0E9347" d="m283.998077,102.638464c-0.248312,0 -0.487074,-0.098136 -0.678084,-0.284593l-3.333117,-3.424931c-0.372469,-0.382729 -0.372469,-1.000983 0,-1.383711s0.974149,-0.382729 1.346617,0l2.655033,2.728169l5.98815,-6.1531c0.372469,-0.382729 0.974149,-0.382729 1.346617,0s0.372469,1.000983 0,1.383711l-6.666234,6.849862c-0.171909,0.196271 -0.410671,0.284593 -0.658983,0.284593z"/>
   <path stroke="null" id="svg_1173" fill="#FFFFFF" d="m282.890221,101.500091c-0.257863,0 -0.496625,-0.107949 -0.678084,-0.284593l-3.333117,-3.424931c-0.372469,-0.382729 -0.372469,-1.000983 0,-1.383711s0.974149,-0.382729 1.346617,0l2.655033,2.728169l5.997701,-6.162913c0.372469,-0.382729 0.974149,-0.382729 1.346617,0s0.372469,1.000983 0,1.383711l-6.666234,6.859676c-0.171909,0.186458 -0.420221,0.284593 -0.668534,0.284593z"/>
   <g stroke="null" transform="matrix(0.09550478634265616,0,0,0.09813556143949959,-185.5474466425871,-91.98057329778209) " id="svg_1174"/>
   <g stroke="null" transform="matrix(0.09550478634265616,0,0,0.09813556143949959,-185.5474466425871,-91.98057329778209) " id="svg_1175"/>
   <g stroke="null" transform="matrix(0.09550478634265616,0,0,0.09813556143949959,-185.5474466425871,-91.98057329778209) " id="svg_1176"/>
   <g stroke="null" transform="matrix(0.09550478634265616,0,0,0.09813556143949959,-185.5474466425871,-91.98057329778209) " id="svg_1177"/>
   <g stroke="null" transform="matrix(0.09550478634265616,0,0,0.09813556143949959,-185.5474466425871,-91.98057329778209) " id="svg_1178"/>
   <g stroke="null" transform="matrix(0.09550478634265616,0,0,0.09813556143949959,-185.5474466425871,-91.98057329778209) " id="svg_1179"/>
   <g stroke="null" transform="matrix(0.09550478634265616,0,0,0.09813556143949959,-185.5474466425871,-91.98057329778209) " id="svg_1180"/>
   <g stroke="null" transform="matrix(0.09550478634265616,0,0,0.09813556143949959,-185.5474466425871,-91.98057329778209) " id="svg_1181"/>
   <g stroke="null" transform="matrix(0.09550478634265616,0,0,0.09813556143949959,-185.5474466425871,-91.98057329778209) " id="svg_1182"/>
   <g stroke="null" transform="matrix(0.09550478634265616,0,0,0.09813556143949959,-185.5474466425871,-91.98057329778209) " id="svg_1183"/>
   <g stroke="null" transform="matrix(0.09550478634265616,0,0,0.09813556143949959,-185.5474466425871,-91.98057329778209) " id="svg_1184"/>
   <g stroke="null" transform="matrix(0.09550478634265616,0,0,0.09813556143949959,-185.5474466425871,-91.98057329778209) " id="svg_1185"/>
   <g stroke="null" transform="matrix(0.09550478634265616,0,0,0.09813556143949959,-185.5474466425871,-91.98057329778209) " id="svg_1186"/>
   <g stroke="null" transform="matrix(0.09550478634265616,0,0,0.09813556143949959,-185.5474466425871,-91.98057329778209) " id="svg_1187"/>
   <g stroke="null" transform="matrix(0.09550478634265616,0,0,0.09813556143949959,-185.5474466425871,-91.98057329778209) " id="svg_1188"/>
  </g>
 </g>
</svg>